CSLSans-ExtraBoldItalic.ufo
<glyph name="exclam" format="2">
  <advance width="310"/>
  <unicode hex="0021"/>
  <outline>
    <contour>
      <point x="102" y="-12" type="qcurve" smooth="yes"/>
      <point x="28" y="-12"/>
      <point x="28" y="44" type="qcurve" smooth="yes"/>
      <point x="28" y="101"/>
      <point x="77" y="159"/>
      <point x="131" y="159" type="qcurve" smooth="yes"/>
      <point x="206" y="159"/>
      <point x="206" y="103" type="qcurve" smooth="yes"/>
      <point x="206" y="-12"/>
    </contour>
    <contour>
      <point x="117" y="216" type="line"/>
      <point x="131" y="503" type="line"/>
      <point x="169" y="698" type="line"/>
      <point x="314" y="698" type="line"/>
      <point x="276" y="503" type="line"/>
      <point x="177" y="216" type="line"/>
    </contour>
  </outline>
</glyph>
<glyph name="quotedbl" format="2">
  <advance width="480"/>
  <unicode hex="0022"/>
  <outline>
    <contour>
      <point x="319" y="419" type="line"/>
      <point x="383" y="740" type="line"/>
      <point x="509" y="740" type="line"/>
      <point x="444" y="419" type="line"/>
    </contour>
    <contour>
      <point x="98" y="419" type="line"/>
      <point x="163" y="740" type="line"/>
      <point x="288" y="740" type="line"/>
      <point x="224" y="419" type="line"/>
    </contour>
  </outline>
</glyph>
<glyph name="plus" format="2">
  <advance width="600"/>
  <unicode hex="002B"/>
  <outline>
    <contour>
      <point x="199" y="63" type="line"/>
      <point x="236" y="250" type="line"/>
      <point x="65" y="250" type="line"/>
      <point x="87" y="361" type="line"/>
      <point x="258" y="361" type="line"/>
      <point x="295" y="549" type="line"/>
      <point x="416" y="549" type="line"/>
      <point x="378" y="361" type="line"/>
      <point x="549" y="361" type="line"/>
      <point x="527" y="250" type="line"/>
      <point x="356" y="250" type="line"/>
      <point x="320" y="63" type="line"/>
    </contour>
  </outline>
</glyph>
<glyph name="six" format="2">
  <advance width="600"/>
  <unicode hex="0036"/>
  <outline>
    <contour>
      <point x="276" y="98" type="qcurve" smooth="yes"/>
      <point x="336" y="98"/>
      <point x="404" y="180"/>
      <point x="404" y="248" type="qcurve" smooth="yes"/>
      <point x="404" y="292"/>
      <point x="359" y="340"/>
      <point x="312" y="340" type="qcurve" smooth="yes"/>
      <point x="280" y="340"/>
      <point x="233" y="317"/>
      <point x="200" y="277"/>
      <point x="184" y="222"/>
      <point x="184" y="189" type="qcurve" smooth="yes"/>
      <point x="184" y="146"/>
      <point x="229" y="98"/>
    </contour>
    <contour>
      <point x="264" y="-12" type="qcurve" smooth="yes"/>
      <point x="159" y="-12"/>
      <point x="47" y="113"/>
      <point x="47" y="221" type="qcurve" smooth="yes"/>
      <point x="47" y="291"/>
      <point x="99" y="429"/>
      <point x="187" y="553"/>
      <point x="306" y="660"/>
      <point x="373" y="698" type="qcurve"/>
      <point x="570" y="698" type="line"/>
      <point x="501" y="657"/>
      <point x="386" y="576"/>
      <point x="295" y="492"/>
      <point x="230" y="399"/>
      <point x="211" y="346" type="qcurve"/>
      <point x="218" y="343" type="line"/>
      <point x="249" y="397"/>
      <point x="329" y="447"/>
      <point x="379" y="447" type="qcurve" smooth="yes"/>
      <point x="419" y="447"/>
      <point x="481" y="419"/>
      <point x="524" y="369"/>
      <point x="547" y="298"/>
      <point x="547" y="256" type="qcurve" smooth="yes"/>
      <point x="547" y="205"/>
      <point x="509" y="108"/>
      <point x="436" y="33"/>
      <point x="331" y="-12"/>
    </contour>
  </outline>
</glyph>
<glyph name="seven" format="2">
  <advance width="600"/>
  <unicode hex="0037"/>
  <outline>
    <contour>
      <point x="261" y="0" type="line"/>
      <point x="114" y="0" type="line"/>
      <point x="464" y="584" type="line"/>
      <point x="121" y="584" type="line"/>
      <point x="144" y="698" type="line"/>
      <point x="624" y="698" type="line"/>
      <point x="600" y="577" type="line"/>
    </contour>
  </outline>
</glyph>
<glyph name="nine" format="2">
  <advance width="600"/>
  <unicode hex="0039"/>
  <outline>
    <contour>
      <point x="318" y="358" type="qcurve" smooth="yes"/>
      <point x="349" y="358"/>
      <point x="397" y="381"/>
      <point x="430" y="421"/>
      <point x="446" y="476"/>
      <point x="446" y="508" type="qcurve"/>
      <point x="445" y="552"/>
      <point x="400" y="600"/>
      <point x="353" y="600" type="qcurve" smooth="yes"/>
      <point x="293" y="600"/>
      <point x="225" y="517"/>
      <point x="225" y="450" type="qcurve" smooth="yes"/>
      <point x="225" y="406"/>
      <point x="271" y="358"/>
    </contour>
    <contour>
      <point x="59" y="0" type="line"/>
      <point x="128" y="41"/>
      <point x="242" y="121"/>
      <point x="332" y="205"/>
      <point x="398" y="298"/>
      <point x="419" y="352" type="qcurve"/>
      <point x="411" y="355" type="line"/>
      <point x="385" y="310"/>
      <point x="307" y="250"/>
      <point x="250" y="250" type="qcurve" smooth="yes"/>
      <point x="211" y="250"/>
      <point x="149" y="278"/>
      <point x="106" y="329"/>
      <point x="83" y="400"/>
      <point x="83" y="442" type="qcurve" smooth="yes"/>
      <point x="83" y="493"/>
      <point x="120" y="589"/>
      <point x="192" y="664"/>
      <point x="297" y="710"/>
      <point x="365" y="710" type="qcurve" smooth="yes"/>
      <point x="417" y="710"/>
      <point x="498" y="677"/>
      <point x="554" y="616"/>
      <point x="582" y="530"/>
      <point x="582" y="477" type="qcurve" smooth="yes"/>
      <point x="582" y="406"/>
      <point x="529" y="267"/>
      <point x="440" y="143"/>
      <point x="322" y="37"/>
      <point x="257" y="0" type="qcurve"/>
    </contour>
  </outline>
</glyph>
<glyph name="semicolon" format="2">
  <advance width="300"/>
  <unicode hex="003B"/>
  <outline>
    <contour>
      <point x="-56" y="-146" type="line"/>
      <point x="27" y="-82"/>
      <point x="66" y="-8" type="qcurve"/>
      <point x="40" y="-1"/>
      <point x="17" y="30"/>
      <point x="17" y="47" type="qcurve" smooth="yes"/>
      <point x="17" y="71"/>
      <point x="28" y="113"/>
      <point x="52" y="145"/>
      <point x="90" y="164"/>
      <point x="116" y="164" type="qcurve" smooth="yes"/>
      <point x="157" y="164"/>
      <point x="190" y="126"/>
      <point x="190" y="100" type="qcurve" smooth="yes"/>
      <point x="190" y="70"/>
      <point x="169" y="4"/>
      <point x="132" y="-62"/>
      <point x="79" y="-122"/>
      <point x="46" y="-146" type="qcurve"/>
    </contour>
    <contour>
      <point x="160" y="361" type="qcurve" smooth="yes"/>
      <point x="119" y="361"/>
      <point x="87" y="396"/>
      <point x="87" y="419" type="qcurve" smooth="yes"/>
      <point x="87" y="443"/>
      <point x="98" y="485"/>
      <point x="122" y="517"/>
      <point x="160" y="536"/>
      <point x="187" y="536" type="qcurve" smooth="yes"/>
      <point x="228" y="536"/>
      <point x="261" y="500"/>
      <point x="261" y="478" type="qcurve" smooth="yes"/>
      <point x="261" y="473"/>
      <point x="260" y="466"/>
      <point x="260" y="462" type="qcurve"/>
      <point x="254" y="433" type="line" smooth="yes"/>
      <point x="247" y="400"/>
      <point x="201" y="361"/>
    </contour>
  </outline>
</glyph>
<glyph name="question" format="2">
  <advance width="488"/>
  <unicode hex="003F"/>
  <outline>
    <contour>
      <point x="174" y="-12" type="qcurve" smooth="yes"/>
      <point x="100" y="-12"/>
      <point x="100" y="44" type="qcurve" smooth="yes"/>
      <point x="100" y="101"/>
      <point x="149" y="159"/>
      <point x="203" y="159" type="qcurve" smooth="yes"/>
      <point x="278" y="159"/>
      <point x="278" y="103" type="qcurve" smooth="yes"/>
      <point x="278" y="-12"/>
    </contour>
    <contour>
      <point x="151" y="230" type="line"/>
      <point x="183" y="385" type="line"/>
      <point x="278" y="393"/>
      <point x="367" y="463"/>
      <point x="367" y="526" type="qcurve" smooth="yes"/>
      <point x="367" y="559"/>
      <point x="322" y="593"/>
      <point x="290" y="593" type="qcurve" smooth="yes"/>
      <point x="246" y="593"/>
      <point x="190" y="540"/>
      <point x="175" y="501" type="qcurve"/>
      <point x="66" y="550" type="line"/>
      <point x="98" y="623"/>
      <point x="216" y="710"/>
      <point x="309" y="710" type="qcurve" smooth="yes"/>
      <point x="404" y="710"/>
      <point x="509" y="621"/>
      <point x="509" y="543" type="qcurve" smooth="yes"/>
      <point x="509" y="501"/>
      <point x="477" y="424"/>
      <point x="420" y="362"/>
      <point x="344" y="319"/>
      <point x="299" y="310" type="qcurve"/>
      <point x="282" y="230" type="line"/>
    </contour>
  </outline>
</glyph>
<glyph name="T" format="2">
  <advance width="568"/>
  <unicode hex="0054"/>
  <outline>
    <contour>
      <point x="162" y="0" type="line"/>
      <point x="277" y="576" type="line"/>
      <point x="90" y="576" type="line"/>
      <point x="115" y="698" type="line"/>
      <point x="627" y="698" type="line"/>
      <point x="602" y="576" type="line"/>
      <point x="415" y="576" type="line"/>
      <point x="300" y="0" type="line"/>
    </contour>
  </outline>
</glyph>
<glyph name="Z" format="2">
  <advance width="572"/>
  <unicode hex="005A"/>
  <outline>
    <contour>
      <point x="-11" y="0" type="line"/>
      <point x="14" y="123" type="line"/>
      <point x="432" y="576" type="line"/>
      <point x="119" y="576" type="line"/>
      <point x="144" y="698" type="line"/>
      <point x="621" y="698" type="line"/>
      <point x="596" y="575" type="line"/>
      <point x="178" y="122" type="line"/>
      <point x="509" y="122" type="line"/>
      <point x="485" y="0" type="line"/>
    </contour>
  </outline>
</glyph>
<glyph name="b" format="2">
  <advance width="582"/>
  <unicode hex="0062"/>
  <outline>
    <contour>
      <point x="273" y="98" type="qcurve" smooth="yes"/>
      <point x="368" y="98"/>
      <point x="392" y="219" type="qcurve" smooth="yes"/>
      <point x="397" y="247"/>
      <point x="404" y="288"/>
      <point x="409" y="317"/>
      <point x="412" y="337"/>
      <point x="412" y="346" type="qcurve"/>
      <point x="407" y="426"/>
      <point x="343" y="426" type="qcurve" smooth="yes"/>
      <point x="317" y="426"/>
      <point x="272" y="401"/>
      <point x="236" y="358"/>
      <point x="210" y="302"/>
      <point x="204" y="271" type="qcurve" smooth="yes"/>
      <point x="189" y="198" type="line"/>
      <point x="186" y="172"/>
      <point x="186" y="168" type="qcurve" smooth="yes"/>
      <point x="186" y="136"/>
      <point x="234" y="98"/>
    </contour>
    <contour>
      <point x="304" y="-12" type="qcurve" smooth="yes"/>
      <point x="253" y="-12"/>
      <point x="179" y="45"/>
      <point x="173" y="90" type="qcurve"/>
      <point x="168" y="90" type="line"/>
      <point x="150" y="0" type="line"/>
      <point x="16" y="0" type="line"/>
      <point x="164" y="740" type="line"/>
      <point x="298" y="740" type="line"/>
      <point x="231" y="403" type="line"/>
      <point x="237" y="403" type="line"/>
      <point x="266" y="466"/>
      <point x="345" y="536"/>
      <point x="407" y="536" type="qcurve" smooth="yes"/>
      <point x="444" y="536"/>
      <point x="498" y="508"/>
      <point x="533" y="459"/>
      <point x="549" y="392"/>
      <point x="549" y="353" type="qcurve" smooth="yes"/>
      <point x="549" y="270"/>
      <point x="509" y="135"/>
      <point x="442" y="40"/>
      <point x="353" y="-12"/>
    </contour>
  </outline>
</glyph>
<glyph name="braceright" format="2">
  <advance width="358"/>
  <unicode hex="007D"/>
  <outline>
    <contour>
      <point x="-44" y="-138" type="line"/>
      <point x="-24" y="-38" type="line"/>
      <point x="54" y="-38" type="line"/>
      <point x="98" y="185" type="line" smooth="yes"/>
      <point x="102" y="208"/>
      <point x="122" y="251"/>
      <point x="153" y="284"/>
      <point x="196" y="305"/>
      <point x="225" y="308" type="qcurve"/>
      <point x="226" y="314" type="line"/>
      <point x="190" y="321"/>
      <point x="146" y="372"/>
      <point x="146" y="411" type="qcurve" smooth="yes"/>
      <point x="146" y="416"/>
      <point x="170" y="539"/>
      <point x="193" y="660" type="qcurve"/>
      <point x="115" y="660" type="line"/>
      <point x="135" y="760" type="line"/>
      <point x="240" y="760" type="line" smooth="yes"/>
      <point x="278" y="760"/>
      <point x="320" y="720"/>
      <point x="320" y="686" type="qcurve" smooth="yes"/>
      <point x="320" y="679"/>
      <point x="319" y="667"/>
      <point x="318" y="662" type="qcurve" smooth="yes"/>
      <point x="279" y="468" type="line" smooth="yes"/>
      <point x="276" y="453"/>
      <point x="276" y="440" type="qcurve" smooth="yes"/>
      <point x="276" y="426"/>
      <point x="279" y="414" type="qcurve"/>
      <point x="284" y="389"/>
      <point x="323" y="365"/>
      <point x="353" y="365" type="qcurve"/>
      <point x="330" y="256" type="line"/>
      <point x="237" y="256"/>
      <point x="219" y="167" type="qcurve" smooth="yes"/>
      <point x="177" y="-41" type="line" smooth="yes"/>
      <point x="167" y="-89"/>
      <point x="112" y="-138"/>
      <point x="70" y="-138" type="qcurve" smooth="yes"/>
    </contour>
  </outline>
</glyph>
<glyph name="logicalnot" format="2">
  <advance width="600"/>
  <unicode hex="00AC"/>
  <outline>
    <contour>
      <point x="364" y="79" type="line"/>
      <point x="399" y="250" type="line"/>
      <point x="66" y="250" type="line"/>
      <point x="88" y="361" type="line"/>
      <point x="535" y="361" type="line"/>
      <point x="478" y="79" type="line"/>
    </contour>
  </outline>
</glyph>
<glyph name="registered" format="2">
  <advance width="455"/>
  <unicode hex="00AE"/>
  <outline>
    <contour>
      <point x="279" y="506" type="line" smooth="yes"/>
      <point x="299" y="506"/>
      <point x="314" y="529"/>
      <point x="314" y="546" type="qcurve" smooth="yes"/>
      <point x="314" y="564"/>
      <point x="289" y="564" type="qcurve" smooth="yes"/>
      <point x="262" y="564" type="line"/>
      <point x="251" y="506" type="line"/>
    </contour>
    <contour>
      <point x="287" y="400" type="line"/>
      <point x="263" y="465" type="line"/>
      <point x="243" y="465" type="line"/>
      <point x="230" y="400" type="line"/>
      <point x="170" y="400" type="line"/>
      <point x="212" y="609" type="line"/>
      <point x="301" y="609" type="line" smooth="yes"/>
      <point x="337" y="609"/>
      <point x="376" y="576"/>
      <point x="376" y="544" type="qcurve" smooth="yes"/>
      <point x="376" y="522"/>
      <point x="347" y="482"/>
      <point x="321" y="474" type="qcurve"/>
      <point x="349" y="400" type="line"/>
    </contour>
    <contour>
      <point x="253" y="341" type="qcurve" smooth="yes"/>
      <point x="305" y="341"/>
      <point x="373" y="389"/>
      <point x="413" y="454"/>
      <point x="428" y="521"/>
      <point x="428" y="541" type="qcurve" smooth="yes"/>
      <point x="428" y="601"/>
      <point x="351" y="666"/>
      <point x="293" y="666" type="qcurve" smooth="yes"/>
      <point x="241" y="666"/>
      <point x="174" y="620"/>
      <point x="134" y="556"/>
      <point x="118" y="488"/>
      <point x="118" y="467" type="qcurve" smooth="yes"/>
      <point x="118" y="407"/>
      <point x="195" y="341"/>
    </contour>
    <contour>
      <point x="248" y="298" type="qcurve" smooth="yes"/>
      <point x="208" y="298"/>
      <point x="142" y="324"/>
      <point x="95" y="370"/>
      <point x="69" y="433"/>
      <point x="69" y="471" type="qcurve" smooth="yes"/>
      <point x="69" y="525"/>
      <point x="107" y="613"/>
      <point x="170" y="676"/>
      <point x="253" y="710"/>
      <point x="299" y="710" type="qcurve" smooth="yes"/>
      <point x="339" y="710"/>
      <point x="404" y="683"/>
      <point x="451" y="637"/>
      <point x="477" y="574"/>
      <point x="477" y="537" type="qcurve" smooth="yes"/>
      <point x="477" y="485"/>
      <point x="441" y="397"/>
      <point x="380" y="334"/>
      <point x="296" y="298"/>
    </contour>
  </outline>
</glyph>
<glyph name="degree" format="2">
  <advance width="458"/>
  <unicode hex="00B0"/>
  <outline>
    <contour>
      <point x="273" y="426" type="qcurve" smooth="yes"/>
      <point x="295" y="426"/>
      <point x="330" y="444"/>
      <point x="355" y="476"/>
      <point x="368" y="517"/>
      <point x="368" y="540" type="qcurve" smooth="yes"/>
      <point x="368" y="575"/>
      <point x="327" y="621"/>
      <point x="291" y="621" type="qcurve" smooth="yes"/>
      <point x="270" y="621"/>
      <point x="235" y="603"/>
      <point x="210" y="572"/>
      <point x="196" y="531"/>
      <point x="196" y="507" type="qcurve" smooth="yes"/>
      <point x="196" y="472"/>
      <point x="236" y="426"/>
    </contour>
    <contour>
      <point x="263" y="337" type="qcurve" smooth="yes"/>
      <point x="225" y="337"/>
      <point x="164" y="365"/>
      <point x="121" y="411"/>
      <point x="98" y="473"/>
      <point x="98" y="506" type="qcurve" smooth="yes"/>
      <point x="98" y="550"/>
      <point x="130" y="625"/>
      <point x="186" y="679"/>
      <point x="259" y="710"/>
      <point x="301" y="710" type="qcurve" smooth="yes"/>
      <point x="337" y="710"/>
      <point x="398" y="683"/>
      <point x="441" y="637"/>
      <point x="466" y="575"/>
      <point x="466" y="541" type="qcurve" smooth="yes"/>
      <point x="466" y="498"/>
      <point x="434" y="423"/>
      <point x="379" y="368"/>
      <point x="305" y="337"/>
    </contour>
  </outline>
</glyph>
<glyph name="periodcentered" format="2">
  <advance width="347"/>
  <unicode hex="00B7"/>
  <outline>
    <contour>
      <point x="167" y="216" type="qcurve" smooth="yes"/>
      <point x="126" y="216"/>
      <point x="93" y="251"/>
      <point x="93" y="274" type="qcurve" smooth="yes"/>
      <point x="93" y="298"/>
      <point x="104" y="340"/>
      <point x="129" y="372"/>
      <point x="167" y="391"/>
      <point x="194" y="391" type="qcurve" smooth="yes"/>
      <point x="235" y="391"/>
      <point x="267" y="355"/>
      <point x="267" y="333" type="qcurve" smooth="yes"/>
      <point x="267" y="322"/>
      <point x="266" y="317" type="qcurve"/>
      <point x="261" y="288" type="line"/>
      <point x="254" y="255"/>
      <point x="208" y="216"/>
    </contour>
  </outline>
</glyph>
<glyph name="onesuperior" format="2">
  <advance width="314"/>
  <unicode hex="00B9"/>
  <outline>
    <contour>
      <point x="244" y="329" type="line"/>
      <point x="148" y="329" type="line"/>
      <point x="204" y="608" type="line"/>
      <point x="116" y="567" type="line"/>
      <point x="134" y="659" type="line"/>
      <point x="217" y="698" type="line"/>
      <point x="318" y="698" type="line"/>
    </contour>
  </outline>
</glyph>
<glyph name="Ccedilla" format="2">
  <advance width="632"/>
  <unicode hex="00C7"/>
  <outline>
    <contour>
      <point x="267" y="-212" type="qcurve" smooth="yes"/>
      <point x="225" y="-212"/>
      <point x="169" y="-186"/>
      <point x="157" y="-166" type="qcurve"/>
      <point x="208" y="-116" type="line"/>
      <point x="214" y="-127"/>
      <point x="244" y="-143"/>
      <point x="264" y="-143" type="qcurve" smooth="yes"/>
      <point x="272" y="-143"/>
      <point x="286" y="-142"/>
      <point x="291" y="-141" type="qcurve"/>
      <point x="316" y="-134"/>
      <point x="316" y="-112" type="qcurve" smooth="yes"/>
      <point x="316" y="-84"/>
      <point x="251" y="-75" type="qcurve"/>
      <point x="228" y="-73" type="line"/>
      <point x="256" y="-8" type="line"/>
      <point x="164" y="7"/>
      <point x="57" y="146"/>
      <point x="57" y="271" type="qcurve" smooth="yes"/>
      <point x="57" y="358"/>
      <point x="108" y="516"/>
      <point x="202" y="638"/>
      <point x="333" y="710"/>
      <point x="413" y="710" type="qcurve" smooth="yes"/>
      <point x="507" y="710"/>
      <point x="622" y="623"/>
      <point x="647" y="541" type="qcurve"/>
      <point x="524" y="489" type="line"/>
      <point x="512" y="534"/>
      <point x="457" y="587"/>
      <point x="402" y="587" type="qcurve" smooth="yes"/>
      <point x="364" y="587"/>
      <point x="304" y="558"/>
      <point x="258" y="505"/>
      <point x="228" y="432"/>
      <point x="221" y="388" type="qcurve"/>
      <point x="202" y="298" type="line"/>
      <point x="200" y="282"/>
      <point x="197" y="257"/>
      <point x="197" y="246" type="qcurve" smooth="yes"/>
      <point x="197" y="180"/>
      <point x="257" y="111"/>
      <point x="317" y="111" type="qcurve" smooth="yes"/>
      <point x="376" y="111"/>
      <point x="449" y="169"/>
      <point x="473" y="218" type="qcurve"/>
      <point x="589" y="165" type="line"/>
      <point x="496" y="-8"/>
      <point x="319" y="-12" type="qcurve"/>
      <point x="302" y="-56" type="line"/>
      <point x="304" y="-60" type="line"/>
      <point x="314" y="-57"/>
      <point x="335" y="-53"/>
      <point x="346" y="-53" type="qcurve" smooth="yes"/>
      <point x="372" y="-53"/>
      <point x="408" y="-83"/>
      <point x="408" y="-109" type="qcurve" smooth="yes"/>
      <point x="408" y="-135"/>
      <point x="386" y="-173"/>
      <point x="348" y="-199"/>
      <point x="296" y="-212"/>
    </contour>
  </outline>
</glyph>
<glyph name="Igrave" format="2">
  <advance width="292"/>
  <unicode hex="00CC"/>
  <outline>
    <contour>
      <point x="162" y="0" type="line"/>
      <point x="24" y="0" type="line"/>
      <point x="164" y="698" type="line"/>
      <point x="303" y="698" type="line"/>
    </contour>
    <contour>
      <point x="118" y="916" type="line"/>
      <point x="238" y="972" type="line"/>
      <point x="306" y="779" type="line"/>
      <point x="221" y="741" type="line"/>
    </contour>
  </outline>
</glyph>
<glyph name="multiply" format="2">
  <advance width="600"/>
  <unicode hex="00D7"/>
  <outline>
    <contour>
      <point x="62" y="161" type="line"/>
      <point x="234" y="311" type="line"/>
      <point x="121" y="456" type="line"/>
      <point x="213" y="532" type="line"/>
      <point x="324" y="387" type="line"/>
      <point x="493" y="532" type="line"/>
      <point x="564" y="449" type="line"/>
      <point x="392" y="299" type="line"/>
      <point x="505" y="154" type="line"/>
      <point x="413" y="78" type="line"/>
      <point x="302" y="223" type="line"/>
      <point x="133" y="78" type="line"/>
    </contour>
  </outline>
</glyph>
<glyph name="ccedilla" format="2">
  <advance width="493"/>
  <unicode hex="00E7"/>
  <outline>
    <contour>
      <point x="211" y="-212" type="qcurve" smooth="yes"/>
      <point x="167" y="-212"/>
      <point x="114" y="-184"/>
      <point x="101" y="-166" type="qcurve"/>
      <point x="152" y="-116" type="line"/>
      <point x="158" y="-125"/>
      <point x="188" y="-143"/>
      <point x="208" y="-143" type="qcurve" smooth="yes"/>
      <point x="214" y="-143"/>
      <point x="225" y="-142"/>
      <point x="230" y="-141" type="qcurve" smooth="yes"/>
      <point x="260" y="-135"/>
      <point x="260" y="-112" type="qcurve" smooth="yes"/>
      <point x="260" y="-83"/>
      <point x="195" y="-75" type="qcurve"/>
      <point x="172" y="-73" type="line"/>
      <point x="199" y="-9" type="line"/>
      <point x="163" y="-5"/>
      <point x="102" y="26"/>
      <point x="58" y="81"/>
      <point x="33" y="160"/>
      <point x="33" y="213" type="qcurve" smooth="yes"/>
      <point x="33" y="282"/>
      <point x="74" y="400"/>
      <point x="148" y="487"/>
      <point x="249" y="536"/>
      <point x="309" y="536" type="qcurve" smooth="yes"/>
      <point x="381" y="536"/>
      <point x="482" y="466"/>
      <point x="495" y="402" type="qcurve"/>
      <point x="383" y="358" type="line"/>
      <point x="374" y="390"/>
      <point x="340" y="427"/>
      <point x="302" y="427" type="qcurve" smooth="yes"/>
      <point x="251" y="427"/>
      <point x="196" y="360"/>
      <point x="185" y="298" type="qcurve"/>
      <point x="170" y="225" type="line" smooth="yes"/>
      <point x="166" y="205"/>
      <point x="166" y="183" type="qcurve" smooth="yes"/>
      <point x="166" y="97"/>
      <point x="248" y="97" type="qcurve" smooth="yes"/>
      <point x="290" y="97"/>
      <point x="335" y="143"/>
      <point x="355" y="181" type="qcurve"/>
      <point x="458" y="133" type="line"/>
      <point x="393" y="2"/>
      <point x="264" y="-10" type="qcurve"/>
      <point x="246" y="-56" type="line"/>
      <point x="248" y="-60" type="line"/>
      <point x="257" y="-56"/>
      <point x="280" y="-53"/>
      <point x="290" y="-53" type="qcurve" smooth="yes"/>
      <point x="316" y="-53"/>
      <point x="352" y="-82"/>
      <point x="352" y="-109" type="qcurve" smooth="yes"/>
      <point x="352" y="-135"/>
      <point x="330" y="-173"/>
      <point x="291" y="-199"/>
      <point x="240" y="-212"/>
    </contour>
  </outline>
</glyph>
<glyph name="odieresis" format="2">
  <advance width="543"/>
  <unicode hex="00F6"/>
  <outline>
    <contour>
      <point x="245" y="97" type="qcurve" smooth="yes"/>
      <point x="272" y="97"/>
      <point x="309" y="116"/>
      <point x="334" y="153"/>
      <point x="352" y="206"/>
      <point x="360" y="239" type="qcurve"/>
      <point x="371" y="294" type="line" smooth="yes"/>
      <point x="373" y="304"/>
      <point x="375" y="316"/>
      <point x="377" y="324"/>
      <point x="377" y="329" type="qcurve" smooth="yes"/>
      <point x="377" y="341" type="line"/>
      <point x="374" y="427"/>
      <point x="298" y="427" type="qcurve" smooth="yes"/>
      <point x="270" y="427"/>
      <point x="234" y="408"/>
      <point x="208" y="371"/>
      <point x="191" y="318"/>
      <point x="183" y="285" type="qcurve" smooth="yes"/>
      <point x="171" y="230" type="line"/>
      <point x="169" y="219"/>
      <point x="167" y="207"/>
      <point x="165" y="199"/>
      <point x="165" y="195" type="qcurve" smooth="yes"/>
      <point x="165" y="183" type="line"/>
      <point x="168" y="97"/>
    </contour>
    <contour>
      <point x="239" y="-12" type="qcurve" smooth="yes"/>
      <point x="142" y="-12"/>
      <point x="33" y="103"/>
      <point x="33" y="206" type="qcurve" smooth="yes"/>
      <point x="33" y="275"/>
      <point x="72" y="396"/>
      <point x="144" y="485"/>
      <point x="243" y="536"/>
      <point x="303" y="536" type="qcurve" smooth="yes"/>
      <point x="400" y="536"/>
      <point x="510" y="421"/>
      <point x="510" y="318" type="qcurve" smooth="yes"/>
      <point x="510" y="250"/>
      <point x="470" y="130"/>
      <point x="398" y="40"/>
      <point x="299" y="-12"/>
    </contour>
    <contour>
      <point x="232" y="602" type="qcurve" smooth="yes"/>
      <point x="200" y="602"/>
      <point x="170" y="628"/>
      <point x="170" y="648" type="qcurve" smooth="yes"/>
      <point x="170" y="692"/>
      <point x="209" y="748"/>
      <point x="257" y="748" type="qcurve" smooth="yes"/>
      <point x="289" y="748"/>
      <point x="320" y="721"/>
      <point x="320" y="701" type="qcurve" smooth="yes"/>
      <point x="320" y="653"/>
      <point x="277" y="602"/>
    </contour>
    <contour>
      <point x="431" y="602" type="qcurve" smooth="yes"/>
      <point x="399" y="602"/>
      <point x="368" y="628"/>
      <point x="368" y="648" type="qcurve" smooth="yes"/>
      <point x="368" y="692"/>
      <point x="408" y="748"/>
      <point x="456" y="748" type="qcurve" smooth="yes"/>
      <point x="488" y="748"/>
      <point x="518" y="721"/>
      <point x="518" y="701" type="qcurve" smooth="yes"/>
      <point x="518" y="653"/>
      <point x="476" y="602"/>
    </contour>
  </outline>
</glyph>
<glyph name="amacron" format="2">
  <advance width="590"/>
  <unicode hex="0101"/>
  <outline>
    <contour>
      <point x="239" y="98" type="qcurve" smooth="yes"/>
      <point x="264" y="98"/>
      <point x="309" y="123"/>
      <point x="345" y="166"/>
      <point x="371" y="222"/>
      <point x="378" y="253" type="qcurve"/>
      <point x="396" y="346"/>
      <point x="396" y="355" type="qcurve" smooth="yes"/>
      <point x="396" y="389"/>
      <point x="344" y="426"/>
      <point x="309" y="426" type="qcurve" smooth="yes"/>
      <point x="260" y="426"/>
      <point x="227" y="391" type="qcurve" smooth="yes"/>
      <point x="210" y="373"/>
      <point x="189" y="306"/>
      <point x="175" y="240"/>
      <point x="170" y="189"/>
      <point x="170" y="186" type="qcurve" smooth="yes"/>
      <point x="170" y="144"/>
      <point x="202" y="98"/>
    </contour>
    <contour>
      <point x="175" y="-12" type="qcurve" smooth="yes"/>
      <point x="138" y="-12"/>
      <point x="85" y="16"/>
      <point x="50" y="65"/>
      <point x="33" y="132"/>
      <point x="33" y="171" type="qcurve" smooth="yes"/>
      <point x="33" y="247"/>
      <point x="69" y="379"/>
      <point x="134" y="478"/>
      <point x="222" y="535"/>
      <point x="274" y="536" type="qcurve"/>
      <point x="302" y="536"/>
      <point x="328" y="527" type="qcurve" smooth="yes"/>
      <point x="360" y="516"/>
      <point x="404" y="468"/>
      <point x="409" y="434" type="qcurve"/>
      <point x="414" y="434" type="line"/>
      <point x="432" y="524" type="line"/>
      <point x="566" y="524" type="line"/>
      <point x="482" y="108" type="line"/>
      <point x="542" y="108" type="line"/>
      <point x="521" y="0" type="line"/>
      <point x="431" y="0" type="line" smooth="yes"/>
      <point x="393" y="0"/>
      <point x="345" y="39"/>
      <point x="345" y="75" type="qcurve" smooth="yes"/>
      <point x="345" y="88"/>
      <point x="349" y="111"/>
      <point x="351" y="121" type="qcurve"/>
      <point x="345" y="121" type="line"/>
      <point x="315" y="57"/>
      <point x="237" y="-12"/>
    </contour>
    <contour>
      <point x="211" y="626" type="line"/>
      <point x="231" y="725" type="line"/>
      <point x="508" y="725" type="line"/>
      <point x="489" y="626" type="line"/>
    </contour>
  </outline>
</glyph>
<glyph name="Emacron" format="2">
  <advance width="577"/>
  <unicode hex="0112"/>
  <outline>
    <contour>
      <point x="264" y="787" type="line"/>
      <point x="283" y="886" type="line"/>
      <point x="560" y="886" type="line"/>
      <point x="541" y="787" type="line"/>
    </contour>
    <contour>
      <point x="24" y="0" type="line"/>
      <point x="164" y="698" type="line"/>
      <point x="609" y="698" type="line"/>
      <point x="584" y="576" type="line"/>
      <point x="278" y="576" type="line"/>
      <point x="246" y="414" type="line"/>
      <point x="517" y="414" type="line"/>
      <point x="492" y="292" type="line"/>
      <point x="221" y="292" type="line"/>
      <point x="187" y="122" type="line"/>
      <point x="504" y="122" type="line"/>
      <point x="480" y="0" type="line"/>
    </contour>
  </outline>
</glyph>
<glyph name="Hbar" format="2">
  <advance width="708"/>
  <unicode hex="0126"/>
  <outline>
    <contour>
      <point x="538" y="514" type="line"/>
      <point x="270" y="514" type="line"/>
      <point x="250" y="414" type="line"/>
      <point x="518" y="414" type="line"/>
    </contour>
    <contour>
      <point x="435" y="0" type="line"/>
      <point x="494" y="292" type="line"/>
      <point x="226" y="292" type="line"/>
      <point x="167" y="0" type="line"/>
      <point x="28" y="0" type="line"/>
      <point x="132" y="514" type="line"/>
      <point x="60" y="514" type="line"/>
      <point x="80" y="616" type="line"/>
      <point x="152" y="616" type="line"/>
      <point x="168" y="698" type="line"/>
      <point x="307" y="698" type="line"/>
      <point x="290" y="616" type="line"/>
      <point x="558" y="616" type="line"/>
      <point x="575" y="698" type="line"/>
      <point x="714" y="698" type="line"/>
      <point x="697" y="616" type="line"/>
      <point x="768" y="616" type="line"/>
      <point x="748" y="514" type="line"/>
      <point x="677" y="514" type="line"/>
      <point x="574" y="0" type="line"/>
    </contour>
  </outline>
</glyph>
<glyph name="hbar" format="2">
  <advance width="586"/>
  <unicode hex="0127"/>
  <outline>
    <contour>
      <point x="428" y="0" type="line" smooth="yes"/>
      <point x="390" y="0"/>
      <point x="346" y="39"/>
      <point x="346" y="74" type="qcurve" smooth="yes"/>
      <point x="346" y="82"/>
      <point x="350" y="101" type="qcurve" smooth="yes"/>
      <point x="356" y="133"/>
      <point x="372" y="222"/>
      <point x="387" y="304"/>
      <point x="398" y="364"/>
      <point x="398" y="368" type="qcurve" smooth="yes"/>
      <point x="398" y="394"/>
      <point x="371" y="424"/>
      <point x="342" y="424" type="qcurve" smooth="yes"/>
      <point x="317" y="424"/>
      <point x="271" y="396"/>
      <point x="234" y="352"/>
      <point x="209" y="298"/>
      <point x="204" y="272" type="qcurve" smooth="yes"/>
      <point x="150" y="0" type="line"/>
      <point x="16" y="0" type="line"/>
      <point x="135" y="594" type="line"/>
      <point x="66" y="594" type="line"/>
      <point x="86" y="686" type="line"/>
      <point x="153" y="686" type="line"/>
      <point x="164" y="740" type="line"/>
      <point x="298" y="740" type="line"/>
      <point x="287" y="686" type="line"/>
      <point x="428" y="686" type="line"/>
      <point x="409" y="594" type="line"/>
      <point x="268" y="594" type="line"/>
      <point x="231" y="404" type="line"/>
      <point x="237" y="404" type="line"/>
      <point x="263" y="459"/>
      <point x="330" y="526"/>
      <point x="382" y="534" type="qcurve"/>
      <point x="390" y="536"/>
      <point x="398" y="536" type="qcurve" smooth="yes"/>
      <point x="413" y="536" type="line"/>
      <point x="474" y="534"/>
      <point x="536" y="463"/>
      <point x="536" y="399" type="qcurve" smooth="yes"/>
      <point x="536" y="374"/>
      <point x="527" y="324"/>
      <point x="522" y="298" type="qcurve" smooth="yes"/>
      <point x="484" y="108" type="line"/>
      <point x="539" y="108" type="line"/>
      <point x="517" y="0" type="line"/>
    </contour>
  </outline>
</glyph>
<glyph name="Imacron" format="2">
  <advance width="292"/>
  <unicode hex="012A"/>
  <outline>
    <contour>
      <point x="162" y="0" type="line"/>
      <point x="24" y="0" type="line"/>
      <point x="164" y="698" type="line"/>
      <point x="303" y="698" type="line"/>
    </contour>
    <contour>
      <point x="111" y="787" type="line"/>
      <point x="131" y="886" type="line"/>
      <point x="408" y="886" type="line"/>
      <point x="389" y="787" type="line"/>
    </contour>
  </outline>
</glyph>
<glyph name="kcommaaccent" format="2">
  <advance width="550"/>
  <unicode hex="0137"/>
  <outline>
    <contour>
      <point x="122" y="-275" type="line"/>
      <point x="176" y="-236"/>
      <point x="202" y="-176" type="qcurve"/>
      <point x="179" y="-173"/>
      <point x="163" y="-149"/>
      <point x="163" y="-131" type="qcurve" smooth="yes"/>
      <point x="163" y="-121"/>
      <point x="167" y="-104" type="qcurve"/>
      <point x="184" y="-42"/>
      <point x="241" y="-42" type="qcurve" smooth="yes"/>
      <point x="304" y="-42"/>
      <point x="304" y="-93" type="qcurve" smooth="yes"/>
      <point x="304" y="-105"/>
      <point x="301" y="-120" type="qcurve"/>
      <point x="277" y="-219"/>
      <point x="205" y="-275" type="qcurve"/>
    </contour>
    <contour>
      <point x="404" y="0" type="line" smooth="yes"/>
      <point x="330" y="0"/>
      <point x="305" y="79" type="qcurve" smooth="yes"/>
      <point x="261" y="216" type="line"/>
      <point x="182" y="142" type="line"/>
      <point x="154" y="0" type="line"/>
      <point x="14" y="0" type="line"/>
      <point x="162" y="740" type="line"/>
      <point x="302" y="740" type="line"/>
      <point x="215" y="305" type="line"/>
      <point x="222" y="305" type="line"/>
      <point x="294" y="395" type="line"/>
      <point x="420" y="525" type="line"/>
      <point x="583" y="525" type="line"/>
      <point x="370" y="312" type="line"/>
      <point x="442" y="112" type="line"/>
      <point x="503" y="112" type="line"/>
      <point x="479" y="0" type="line"/>
    </contour>
  </outline>
</glyph>
<glyph name="Lcommaaccent" format="2">
  <advance width="510"/>
  <unicode hex="013B"/>
  <outline>
    <contour>
      <point x="92" y="-275" type="line"/>
      <point x="146" y="-236"/>
      <point x="172" y="-176" type="qcurve"/>
      <point x="149" y="-173"/>
      <point x="133" y="-149"/>
      <point x="133" y="-131" type="qcurve" smooth="yes"/>
      <point x="133" y="-121"/>
      <point x="137" y="-104" type="qcurve"/>
      <point x="154" y="-42"/>
      <point x="211" y="-42" type="qcurve" smooth="yes"/>
      <point x="274" y="-42"/>
      <point x="274" y="-93" type="qcurve" smooth="yes"/>
      <point x="274" y="-105"/>
      <point x="271" y="-120" type="qcurve"/>
      <point x="247" y="-219"/>
      <point x="175" y="-275" type="qcurve"/>
    </contour>
    <contour>
      <point x="22" y="0" type="line"/>
      <point x="162" y="698" type="line"/>
      <point x="307" y="698" type="line"/>
      <point x="193" y="128" type="line"/>
      <point x="449" y="128" type="line"/>
      <point x="423" y="0" type="line"/>
    </contour>
  </outline>
</glyph>
<glyph name="Scedilla" format="2">
  <advance width="605"/>
  <unicode hex="015E"/>
  <outline>
    <contour>
      <point x="76" y="489" type="qcurve"/>
      <point x="75" y="499"/>
      <point x="75" y="509" type="qcurve" smooth="yes"/>
      <point x="75" y="517"/>
      <point x="77" y="542"/>
      <point x="82" y="561" type="qcurve" smooth="yes"/>
      <point x="92" y="598"/>
      <point x="138" y="654"/>
      <point x="204" y="692"/>
      <point x="287" y="710"/>
      <point x="333" y="710" type="qcurve" smooth="yes"/>
      <point x="411" y="710"/>
      <point x="533" y="660"/>
      <point x="573" y="610" type="qcurve"/>
      <point x="476" y="514" type="line"/>
      <point x="420" y="582"/>
      <point x="324" y="582" type="qcurve" smooth="yes"/>
      <point x="273" y="582"/>
      <point x="221" y="548"/>
      <point x="220" y="510" type="qcurve"/>
      <point x="220" y="507" type="line" smooth="yes"/>
      <point x="220" y="482"/>
      <point x="257" y="447"/>
      <point x="292" y="433" type="qcurve" smooth="yes"/>
      <point x="356" y="409" type="line" smooth="yes"/>
      <point x="407" y="390"/>
      <point x="473" y="346"/>
      <point x="512" y="296"/>
      <point x="527" y="242"/>
      <point x="527" y="214" type="qcurve"/>
      <point x="526" y="160"/>
      <point x="486" y="75"/>
      <point x="415" y="18"/>
      <point x="366" y="3" type="qcurve" smooth="yes"/>
      <point x="328" y="-9"/>
      <point x="283" y="-11" type="qcurve"/>
      <point x="266" y="-56" type="line"/>
      <point x="268" y="-60" type="line"/>
      <point x="279" y="-57"/>
      <point x="298" y="-53"/>
      <point x="309" y="-53" type="qcurve" smooth="yes"/>
      <point x="336" y="-53"/>
      <point x="371" y="-83"/>
      <point x="371" y="-109" type="qcurve" smooth="yes"/>
      <point x="371" y="-135"/>
      <point x="349" y="-173"/>
      <point x="310" y="-199"/>
      <point x="259" y="-212"/>
      <point x="231" y="-212" type="qcurve" smooth="yes"/>
      <point x="190" y="-212"/>
      <point x="134" y="-185"/>
      <point x="121" y="-166" type="qcurve"/>
      <point x="172" y="-116" type="line"/>
      <point x="178" y="-126"/>
      <point x="209" y="-143"/>
      <point x="230" y="-143" type="qcurve" smooth="yes"/>
      <point x="279" y="-143"/>
      <point x="279" y="-112" type="qcurve" smooth="yes"/>
      <point x="279" y="-100"/>
      <point x="264" y="-88"/>
      <point x="240" y="-80"/>
      <point x="209" y="-76"/>
      <point x="192" y="-73" type="qcurve"/>
      <point x="218" y="-10" type="line"/>
      <point x="159" y="-5"/>
      <point x="109" y="17" type="qcurve" smooth="yes"/>
      <point x="42" y="45"/>
      <point x="-6" y="102" type="qcurve"/>
      <point x="90" y="198" type="line"/>
      <point x="160" y="116"/>
      <point x="267" y="116" type="qcurve" smooth="yes"/>
      <point x="380" y="116"/>
      <point x="380" y="205" type="qcurve" smooth="yes"/>
      <point x="380" y="233"/>
      <point x="345" y="266"/>
      <point x="310" y="281" type="qcurve"/>
      <point x="254" y="300"/>
      <point x="168" y="339"/>
      <point x="109" y="387"/>
      <point x="77" y="448"/>
    </contour>
  </outline>
</glyph>
<glyph name="tcaron" format="2">
  <advance width="360"/>
  <unicode hex="0165"/>
  <outline>
    <contour>
      <point x="181" y="0" type="line" smooth="yes"/>
      <point x="131" y="0"/>
      <point x="70" y="32"/>
      <point x="62" y="68" type="qcurve"/>
      <point x="61" y="75"/>
      <point x="60" y="89"/>
      <point x="60" y="97" type="qcurve" smooth="yes"/>
      <point x="60" y="106"/>
      <point x="62" y="128"/>
      <point x="65" y="142" type="qcurve" smooth="yes"/>
      <point x="119" y="416" type="line"/>
      <point x="45" y="416" type="line"/>
      <point x="66" y="524" type="line"/>
      <point x="102" y="524" type="line" smooth="yes"/>
      <point x="118" y="524"/>
      <point x="139" y="530"/>
      <point x="151" y="543"/>
      <point x="158" y="563"/>
      <point x="160" y="577" type="qcurve"/>
      <point x="178" y="666" type="line"/>
      <point x="302" y="666" type="line"/>
      <point x="274" y="524" type="line"/>
      <point x="381" y="524" type="line"/>
      <point x="359" y="416" type="line"/>
      <point x="252" y="416" type="line"/>
      <point x="191" y="108" type="line"/>
      <point x="287" y="108" type="line"/>
      <point x="266" y="0" type="line"/>
    </contour>
    <contour>
      <point x="333" y="576" type="line"/>
      <point x="382" y="788" type="line"/>
      <point x="531" y="788" type="line"/>
      <point x="426" y="576" type="line"/>
    </contour>
  </outline>
</glyph>
<glyph name="Umacron" format="2">
  <advance width="676"/>
  <unicode hex="016A"/>
  <outline>
    <contour>
      <point x="305" y="-12" type="qcurve" smooth="yes"/>
      <point x="187" y="-12"/>
      <point x="73" y="103"/>
      <point x="73" y="211" type="qcurve" smooth="yes"/>
      <point x="73" y="252"/>
      <point x="82" y="302" type="qcurve"/>
      <point x="161" y="698" type="line"/>
      <point x="298" y="698" type="line"/>
      <point x="214" y="278" type="line" smooth="yes"/>
      <point x="208" y="245"/>
      <point x="208" y="218" type="qcurve" smooth="yes"/>
      <point x="208" y="114"/>
      <point x="312" y="114" type="qcurve" smooth="yes"/>
      <point x="439" y="114"/>
      <point x="464" y="271" type="qcurve"/>
      <point x="484" y="379"/>
      <point x="528" y="590"/>
      <point x="550" y="698" type="qcurve"/>
      <point x="687" y="698" type="line"/>
      <point x="602" y="275" type="line" smooth="yes"/>
      <point x="588" y="201"/>
      <point x="541" y="93"/>
      <point x="469" y="23"/>
      <point x="370" y="-12"/>
    </contour>
    <contour>
      <point x="298" y="787" type="line"/>
      <point x="318" y="886" type="line"/>
      <point x="595" y="886" type="line"/>
      <point x="576" y="787" type="line"/>
    </contour>
  </outline>
</glyph>
<glyph name="Ubreve" format="2">
  <advance width="676"/>
  <unicode hex="016C"/>
  <outline>
    <contour>
      <point x="305" y="-12" type="qcurve" smooth="yes"/>
      <point x="187" y="-12"/>
      <point x="73" y="103"/>
      <point x="73" y="211" type="qcurve" smooth="yes"/>
      <point x="73" y="252"/>
      <point x="82" y="302" type="qcurve"/>
      <point x="161" y="698" type="line"/>
      <point x="298" y="698" type="line"/>
      <point x="214" y="278" type="line" smooth="yes"/>
      <point x="208" y="245"/>
      <point x="208" y="218" type="qcurve" smooth="yes"/>
      <point x="208" y="114"/>
      <point x="312" y="114" type="qcurve" smooth="yes"/>
      <point x="439" y="114"/>
      <point x="464" y="271" type="qcurve"/>
      <point x="484" y="379"/>
      <point x="528" y="590"/>
      <point x="550" y="698" type="qcurve"/>
      <point x="687" y="698" type="line"/>
      <point x="602" y="275" type="line" smooth="yes"/>
      <point x="588" y="201"/>
      <point x="541" y="93"/>
      <point x="469" y="23"/>
      <point x="370" y="-12"/>
    </contour>
    <contour>
      <point x="432" y="742" type="qcurve" smooth="yes"/>
      <point x="394" y="742"/>
      <point x="336" y="771"/>
      <point x="295" y="817"/>
      <point x="270" y="877"/>
      <point x="266" y="908" type="qcurve"/>
      <point x="343" y="948" type="line"/>
      <point x="360" y="911" type="line" smooth="yes"/>
      <point x="375" y="876"/>
      <point x="409" y="839"/>
      <point x="440" y="839" type="qcurve" smooth="yes"/>
      <point x="470" y="839"/>
      <point x="516" y="881"/>
      <point x="546" y="923" type="qcurve"/>
      <point x="565" y="948" type="line"/>
      <point x="644" y="904" type="line"/>
      <point x="627" y="871"/>
      <point x="584" y="813"/>
      <point x="531" y="768"/>
      <point x="468" y="742"/>
    </contour>
  </outline>
</glyph>
<glyph name="Uogonek" format="2">
  <advance width="676"/>
  <unicode hex="0172"/>
  <outline>
    <contour>
      <point x="297" y="-212" type="qcurve" smooth="yes"/>
      <point x="273" y="-212"/>
      <point x="231" y="-202"/>
      <point x="199" y="-182"/>
      <point x="180" y="-150"/>
      <point x="180" y="-129" type="qcurve" smooth="yes"/>
      <point x="180" y="-95"/>
      <point x="233" y="-34"/>
      <point x="293" y="-16" type="qcurve"/>
      <point x="293" y="-15"/>
      <point x="292" y="-13"/>
      <point x="292" y="-12" type="qcurve"/>
      <point x="73" y="-5"/>
      <point x="73" y="211" type="qcurve" smooth="yes"/>
      <point x="73" y="252"/>
      <point x="82" y="302" type="qcurve"/>
      <point x="161" y="698" type="line"/>
      <point x="298" y="698" type="line"/>
      <point x="275" y="587"/>
      <point x="235" y="379"/>
      <point x="215" y="281" type="qcurve" smooth="yes"/>
      <point x="211" y="262"/>
      <point x="208" y="234"/>
      <point x="208" y="219" type="qcurve" smooth="yes"/>
      <point x="208" y="164"/>
      <point x="261" y="114"/>
      <point x="312" y="114" type="qcurve" smooth="yes"/>
      <point x="349" y="114"/>
      <point x="401" y="137"/>
      <point x="437" y="183"/>
      <point x="461" y="252"/>
      <point x="470" y="297" type="qcurve" smooth="yes"/>
      <point x="550" y="698" type="line"/>
      <point x="687" y="698" type="line"/>
      <point x="602" y="275" type="line" smooth="yes"/>
      <point x="590" y="216"/>
      <point x="561" y="135"/>
      <point x="524" y="76"/>
      <point x="476" y="35"/>
      <point x="443" y="16" type="qcurve"/>
      <point x="406" y="-4"/>
      <point x="350" y="-34"/>
      <point x="311" y="-59"/>
      <point x="287" y="-83"/>
      <point x="282" y="-98" type="qcurve"/>
      <point x="281" y="-102"/>
      <point x="280" y="-107"/>
      <point x="280" y="-109" type="qcurve" smooth="yes"/>
      <point x="280" y="-111"/>
      <point x="281" y="-114" type="qcurve"/>
      <point x="281" y="-141"/>
      <point x="315" y="-141" type="qcurve" smooth="yes"/>
      <point x="351" y="-141"/>
      <point x="369" y="-114" type="qcurve"/>
      <point x="419" y="-163" type="line"/>
      <point x="401" y="-186"/>
      <point x="344" y="-212"/>
    </contour>
  </outline>
</glyph>
<glyph name="Zcaron" format="2">
  <advance width="572"/>
  <unicode hex="017D"/>
  <outline>
    <contour>
      <point x="328" y="750" type="line"/>
      <point x="229" y="907" type="line"/>
      <point x="300" y="961" type="line"/>
      <point x="396" y="846" type="line"/>
      <point x="533" y="961" type="line"/>
      <point x="602" y="907" type="line"/>
      <point x="448" y="750" type="line"/>
    </contour>
    <contour>
      <point x="-11" y="0" type="line"/>
      <point x="14" y="123" type="line"/>
      <point x="432" y="576" type="line"/>
      <point x="119" y="576" type="line"/>
      <point x="144" y="698" type="line"/>
      <point x="621" y="698" type="line"/>
      <point x="596" y="575" type="line"/>
      <point x="178" y="122" type="line"/>
      <point x="509" y="122" type="line"/>
      <point x="485" y="0" type="line"/>
    </contour>
  </outline>
</glyph>
<glyph name="zcaron" format="2">
  <advance width="488"/>
  <unicode hex="017E"/>
  <outline>
    <contour>
      <point x="247" y="589" type="line"/>
      <point x="148" y="746" type="line"/>
      <point x="219" y="800" type="line"/>
      <point x="315" y="685" type="line"/>
      <point x="452" y="800" type="line"/>
      <point x="521" y="746" type="line"/>
      <point x="368" y="589" type="line"/>
    </contour>
    <contour>
      <point x="-10" y="0" type="line"/>
      <point x="11" y="107" type="line"/>
      <point x="320" y="416" type="line"/>
      <point x="77" y="416" type="line"/>
      <point x="98" y="524" type="line"/>
      <point x="502" y="524" type="line"/>
      <point x="481" y="417" type="line"/>
      <point x="170" y="108" type="line"/>
      <point x="430" y="108" type="line"/>
      <point x="409" y="0" type="line"/>
    </contour>
  </outline>
</glyph>
<glyph name="caron" format="2">
  <advance width="586"/>
  <unicode hex="02C7"/>
  <outline>
    <contour>
      <point x="243" y="589" type="line"/>
      <point x="144" y="746" type="line"/>
      <point x="215" y="800" type="line"/>
      <point x="310" y="685" type="line"/>
      <point x="447" y="800" type="line"/>
      <point x="516" y="746" type="line"/>
      <point x="363" y="589" type="line"/>
    </contour>
  </outline>
</glyph>
<glyph name="dotaccentcomb" format="2">
  <unicode hex="0307"/>
  <outline>
    <contour>
      <point x="15" y="591" type="qcurve" smooth="yes"/>
      <point x="-61" y="591"/>
      <point x="-61" y="650" type="qcurve" smooth="yes"/>
      <point x="-61" y="654"/>
      <point x="-59" y="664" type="qcurve" smooth="yes"/>
      <point x="-54" y="692" type="line"/>
      <point x="-50" y="722"/>
      <point x="-8" y="759"/>
      <point x="40" y="759" type="qcurve" smooth="yes"/>
      <point x="116" y="759"/>
      <point x="116" y="700" type="qcurve" smooth="yes"/>
      <point x="116" y="689"/>
      <point x="109" y="658" type="qcurve"/>
      <point x="105" y="628"/>
      <point x="63" y="591"/>
    </contour>
  </outline>
</glyph>
<glyph name="Iotatonos" format="2">
  <advance width="472"/>
  <unicode hex="038A"/>
  <outline>
    <contour>
      <point x="225" y="580" type="line"/>
      <point x="140" y="607" type="line"/>
      <point x="212" y="811" type="line"/>
      <point x="332" y="782" type="line"/>
    </contour>
    <contour>
      <point x="363" y="0" type="line"/>
      <point x="224" y="0" type="line"/>
      <point x="365" y="698" type="line"/>
      <point x="504" y="698" type="line"/>
    </contour>
  </outline>
</glyph>
<glyph name="Upsilontonos" format="2">
  <advance width="755"/>
  <unicode hex="038E"/>
  <outline>
    <contour>
      <point x="135" y="580" type="line"/>
      <point x="50" y="607" type="line"/>
      <point x="122" y="811" type="line"/>
      <point x="242" y="782" type="line"/>
    </contour>
    <contour>
      <point x="322" y="0" type="line"/>
      <point x="376" y="271" type="line"/>
      <point x="228" y="698" type="line"/>
      <point x="370" y="698" type="line"/>
      <point x="466" y="399" type="line"/>
      <point x="473" y="399" type="line"/>
      <point x="679" y="698" type="line"/>
      <point x="832" y="698" type="line"/>
      <point x="513" y="259" type="line"/>
      <point x="461" y="0" type="line"/>
    </contour>
  </outline>
</glyph>
<glyph name="Theta" format="2">
  <advance width="702"/>
  <unicode hex="0398"/>
  <outline>
    <contour>
      <point x="255" y="292" type="line"/>
      <point x="280" y="414" type="line"/>
      <point x="478" y="414" type="line"/>
      <point x="453" y="292" type="line"/>
    </contour>
    <contour>
      <point x="321" y="111" type="qcurve" smooth="yes"/>
      <point x="399" y="111"/>
      <point x="492" y="208"/>
      <point x="509" y="296" type="qcurve" smooth="yes"/>
      <point x="524" y="369" type="line"/>
      <point x="528" y="392"/>
      <point x="535" y="437"/>
      <point x="535" y="454" type="qcurve" smooth="yes"/>
      <point x="535" y="587"/>
      <point x="411" y="587" type="qcurve" smooth="yes"/>
      <point x="332" y="587"/>
      <point x="240" y="487"/>
      <point x="223" y="402" type="qcurve" smooth="yes"/>
      <point x="209" y="329" type="line" smooth="yes"/>
      <point x="205" y="306"/>
      <point x="197" y="261"/>
      <point x="197" y="244" type="qcurve" smooth="yes"/>
      <point x="197" y="111"/>
    </contour>
    <contour>
      <point x="311" y="-12" type="qcurve" smooth="yes"/>
      <point x="260" y="-12"/>
      <point x="167" y="21"/>
      <point x="98" y="90"/>
      <point x="57" y="196"/>
      <point x="57" y="270" type="qcurve" smooth="yes"/>
      <point x="57" y="359"/>
      <point x="110" y="519"/>
      <point x="206" y="639"/>
      <point x="340" y="710"/>
      <point x="421" y="710" type="qcurve" smooth="yes"/>
      <point x="472" y="710"/>
      <point x="564" y="677"/>
      <point x="634" y="608"/>
      <point x="675" y="501"/>
      <point x="675" y="428" type="qcurve" smooth="yes"/>
      <point x="675" y="339"/>
      <point x="622" y="179"/>
      <point x="526" y="59"/>
      <point x="392" y="-12"/>
    </contour>
  </outline>
</glyph>
<glyph name="Mu" format="2">
  <advance width="799"/>
  <unicode hex="039C"/>
  <outline>
    <contour>
      <point x="633" y="473" type="line"/>
      <point x="627" y="473" type="line"/>
      <point x="533" y="341" type="line"/>
      <point x="372" y="120" type="line"/>
      <point x="256" y="475" type="line"/>
      <point x="251" y="475" type="line"/>
      <point x="156" y="0" type="line"/>
      <point x="24" y="0" type="line"/>
      <point x="164" y="698" type="line"/>
      <point x="311" y="698" type="line"/>
      <point x="414" y="361" type="line"/>
      <point x="418" y="361" type="line"/>
      <point x="654" y="698" type="line"/>
      <point x="810" y="698" type="line"/>
      <point x="670" y="0" type="line"/>
      <point x="538" y="0" type="line"/>
    </contour>
  </outline>
</glyph>
<glyph name="sigmafinal" format="2">
  <advance width="485"/>
  <unicode hex="03C2"/>
  <outline>
    <contour>
      <point x="249" y="-12" type="line"/>
      <point x="215" y="0" type="line" smooth="yes"/>
      <point x="167" y="17"/>
      <point x="98" y="57"/>
      <point x="54" y="108"/>
      <point x="33" y="173"/>
      <point x="33" y="215" type="qcurve" smooth="yes"/>
      <point x="33" y="282"/>
      <point x="71" y="400"/>
      <point x="143" y="486"/>
      <point x="245" y="536"/>
      <point x="309" y="536" type="qcurve" smooth="yes"/>
      <point x="383" y="536"/>
      <point x="484" y="464"/>
      <point x="495" y="402" type="qcurve"/>
      <point x="382" y="358" type="line"/>
      <point x="372" y="390"/>
      <point x="340" y="427"/>
      <point x="301" y="427" type="qcurve" smooth="yes"/>
      <point x="275" y="427"/>
      <point x="226" y="403"/>
      <point x="189" y="354"/>
      <point x="166" y="277"/>
      <point x="166" y="223" type="qcurve" smooth="yes"/>
      <point x="166" y="201"/>
      <point x="171" y="190" type="qcurve"/>
      <point x="179" y="164"/>
      <point x="226" y="132"/>
      <point x="267" y="118" type="qcurve" smooth="yes"/>
      <point x="302" y="106" type="line" smooth="yes"/>
      <point x="340" y="92"/>
      <point x="380" y="51"/>
      <point x="380" y="16" type="qcurve" smooth="yes"/>
      <point x="380" y="-1"/>
      <point x="371" y="-31"/>
      <point x="362" y="-49" type="qcurve" smooth="yes"/>
      <point x="301" y="-174" type="line"/>
      <point x="192" y="-130" type="line"/>
    </contour>
  </outline>
</glyph>
<glyph name="iotadieresis" format="2">
  <advance width="308"/>
  <unicode hex="03CA"/>
  <outline>
    <contour>
      <point x="343" y="0" type="line"/>
      <point x="258" y="0" type="line" smooth="yes"/>
      <point x="201" y="0"/>
      <point x="137" y="44"/>
      <point x="137" y="95" type="qcurve" smooth="yes"/>
      <point x="137" y="103"/>
      <point x="139" y="125"/>
      <point x="141" y="136" type="qcurve" smooth="yes"/>
      <point x="219" y="524" type="line"/>
      <point x="352" y="524" type="line"/>
      <point x="269" y="108" type="line"/>
      <point x="364" y="108" type="line"/>
    </contour>
    <contour>
      <point x="211" y="602" type="qcurve" smooth="yes"/>
      <point x="178" y="602"/>
      <point x="148" y="628"/>
      <point x="148" y="648" type="qcurve" smooth="yes"/>
      <point x="148" y="659"/>
      <point x="153" y="693"/>
      <point x="171" y="725"/>
      <point x="206" y="748"/>
      <point x="236" y="748" type="qcurve" smooth="yes"/>
      <point x="269" y="748"/>
      <point x="299" y="721"/>
      <point x="299" y="701" type="qcurve" smooth="yes"/>
      <point x="299" y="692"/>
      <point x="294" y="659"/>
      <point x="276" y="626"/>
      <point x="241" y="602"/>
    </contour>
    <contour>
      <point x="409" y="602" type="qcurve" smooth="yes"/>
      <point x="376" y="602"/>
      <point x="346" y="628"/>
      <point x="346" y="648" type="qcurve" smooth="yes"/>
      <point x="346" y="659"/>
      <point x="351" y="693"/>
      <point x="369" y="725"/>
      <point x="404" y="748"/>
      <point x="434" y="748" type="qcurve" smooth="yes"/>
      <point x="467" y="748"/>
      <point x="497" y="721"/>
      <point x="497" y="701" type="qcurve" smooth="yes"/>
      <point x="497" y="692"/>
      <point x="492" y="659"/>
      <point x="474" y="626"/>
      <point x="439" y="602"/>
    </contour>
  </outline>
</glyph>
<glyph name="Ercyr" format="2">
  <advance width="637"/>
  <unicode hex="0420"/>
  <outline>
    <contour>
      <point x="393" y="383" type="line" smooth="yes"/>
      <point x="427" y="383"/>
      <point x="475" y="419"/>
      <point x="484" y="456" type="qcurve" smooth="yes"/>
      <point x="495" y="502"/>
      <point x="495" y="516" type="qcurve" smooth="yes"/>
      <point x="495" y="539"/>
      <point x="464" y="570"/>
      <point x="431" y="570" type="qcurve" smooth="yes"/>
      <point x="281" y="570" type="line"/>
      <point x="244" y="383" type="line"/>
    </contour>
    <contour>
      <point x="22" y="0" type="line"/>
      <point x="162" y="698" type="line"/>
      <point x="425" y="698" type="line" smooth="yes"/>
      <point x="531" y="698"/>
      <point x="645" y="601"/>
      <point x="645" y="511" type="qcurve" smooth="yes"/>
      <point x="645" y="396"/>
      <point x="569" y="326" type="qcurve" smooth="yes"/>
      <point x="492" y="255"/>
      <point x="374" y="255" type="qcurve" smooth="yes"/>
      <point x="218" y="255" type="line"/>
      <point x="167" y="0" type="line"/>
    </contour>
  </outline>
</glyph>
<glyph name="Ucyr" format="2">
  <advance width="611"/>
  <unicode hex="0423"/>
  <outline>
    <contour>
      <point x="71" y="0" type="line"/>
      <point x="97" y="129" type="line"/>
      <point x="210" y="129" type="line"/>
      <point x="231" y="165" type="line"/>
      <point x="100" y="698" type="line"/>
      <point x="246" y="698" type="line"/>
      <point x="297" y="473" type="line"/>
      <point x="327" y="315" type="line"/>
      <point x="334" y="315" type="line"/>
      <point x="404" y="467" type="line"/>
      <point x="531" y="698" type="line"/>
      <point x="685" y="698" type="line"/>
      <point x="337" y="98" type="line"/>
      <point x="284" y="0"/>
      <point x="190" y="0" type="qcurve" smooth="yes"/>
    </contour>
  </outline>
</glyph>
<glyph name="Hacyr" format="2">
  <advance width="641"/>
  <unicode hex="0425"/>
  <outline>
    <contour>
      <point x="414" y="0" type="line"/>
      <point x="315" y="243" type="line"/>
      <point x="307" y="243" type="line"/>
      <point x="128" y="0" type="line"/>
      <point x="-40" y="0" type="line"/>
      <point x="250" y="369" type="line"/>
      <point x="104" y="698" type="line"/>
      <point x="260" y="698" type="line"/>
      <point x="355" y="468" type="line"/>
      <point x="363" y="468" type="line"/>
      <point x="538" y="698" type="line"/>
      <point x="706" y="698" type="line"/>
      <point x="419" y="347" type="line"/>
      <point x="571" y="0" type="line"/>
    </contour>
  </outline>
</glyph>
<glyph name="Checyr" format="2">
  <advance width="658"/>
  <unicode hex="0427"/>
  <outline>
    <contour>
      <point x="385" y="0" type="line"/>
      <point x="436" y="252" type="line"/>
      <point x="431" y="252" type="line"/>
      <point x="382" y="224"/>
      <point x="292" y="224" type="qcurve" smooth="yes"/>
      <point x="195" y="224"/>
      <point x="92" y="318"/>
      <point x="92" y="406" type="qcurve" smooth="yes"/>
      <point x="92" y="447"/>
      <point x="101" y="495" type="qcurve" smooth="yes"/>
      <point x="142" y="698" type="line"/>
      <point x="287" y="698" type="line"/>
      <point x="245" y="491" type="line"/>
      <point x="237" y="456"/>
      <point x="237" y="432" type="qcurve" smooth="yes"/>
      <point x="237" y="390"/>
      <point x="282" y="353"/>
      <point x="336" y="353" type="qcurve" smooth="yes"/>
      <point x="407" y="353"/>
      <point x="460" y="372" type="qcurve"/>
      <point x="525" y="698" type="line"/>
      <point x="670" y="698" type="line"/>
      <point x="530" y="0" type="line"/>
    </contour>
  </outline>
</glyph>
<glyph name="Hardcyr" format="2">
  <advance width="721"/>
  <unicode hex="042A"/>
  <outline>
    <contour>
      <point x="434" y="128" type="line" smooth="yes"/>
      <point x="467" y="128"/>
      <point x="517" y="162"/>
      <point x="526" y="201" type="qcurve" smooth="yes"/>
      <point x="537" y="248"/>
      <point x="537" y="265" type="qcurve" smooth="yes"/>
      <point x="537" y="315"/>
      <point x="476" y="315" type="qcurve" smooth="yes"/>
      <point x="317" y="315" type="line"/>
      <point x="280" y="128" type="line"/>
    </contour>
    <contour>
      <point x="109" y="0" type="line"/>
      <point x="224" y="570" type="line"/>
      <point x="76" y="570" type="line"/>
      <point x="102" y="698" type="line"/>
      <point x="395" y="698" type="line"/>
      <point x="344" y="443" type="line"/>
      <point x="470" y="443" type="line" smooth="yes"/>
      <point x="576" y="443"/>
      <point x="687" y="346"/>
      <point x="687" y="258" type="qcurve" smooth="yes"/>
      <point x="687" y="140"/>
      <point x="610" y="71" type="qcurve" smooth="yes"/>
      <point x="533" y="0"/>
      <point x="415" y="0" type="qcurve" smooth="yes"/>
    </contour>
  </outline>
</glyph>
<glyph name="encyr" format="2">
  <advance width="583"/>
  <unicode hex="043D"/>
  <outline>
    <contour>
      <point x="324" y="0" type="line"/>
      <point x="366" y="211" type="line"/>
      <point x="196" y="211" type="line"/>
      <point x="154" y="0" type="line"/>
      <point x="14" y="0" type="line"/>
      <point x="119" y="525" type="line"/>
      <point x="259" y="525" type="line"/>
      <point x="218" y="323" type="line"/>
      <point x="388" y="323" type="line"/>
      <point x="429" y="525" type="line"/>
      <point x="569" y="525" type="line"/>
      <point x="464" y="0" type="line"/>
    </contour>
  </outline>
</glyph>
<glyph name="efcyr" format="2">
  <advance width="789"/>
  <unicode hex="0444"/>
  <outline>
    <contour>
      <point x="491" y="89" type="qcurve" smooth="yes"/>
      <point x="529" y="89"/>
      <point x="578" y="151"/>
      <point x="593" y="226" type="qcurve" smooth="yes"/>
      <point x="607" y="295" type="line"/>
      <point x="617" y="339"/>
      <point x="617" y="378" type="qcurve" smooth="yes"/>
      <point x="617" y="436"/>
      <point x="574" y="436" type="qcurve" smooth="yes"/>
      <point x="546" y="436"/>
      <point x="525" y="414" type="qcurve" smooth="yes"/>
      <point x="486" y="375"/>
      <point x="474" y="310" type="qcurve" smooth="yes"/>
      <point x="450" y="190" type="line"/>
      <point x="448" y="177"/>
      <point x="445" y="156"/>
      <point x="445" y="146" type="qcurve" smooth="yes"/>
      <point x="445" y="89"/>
    </contour>
    <contour>
      <point x="215" y="89" type="qcurve" smooth="yes"/>
      <point x="242" y="89"/>
      <point x="264" y="111" type="qcurve" smooth="yes"/>
      <point x="303" y="150"/>
      <point x="315" y="215" type="qcurve" smooth="yes"/>
      <point x="339" y="335" type="line"/>
      <point x="341" y="348"/>
      <point x="344" y="369"/>
      <point x="344" y="379" type="qcurve" smooth="yes"/>
      <point x="344" y="436"/>
      <point x="298" y="436" type="qcurve" smooth="yes"/>
      <point x="260" y="436"/>
      <point x="211" y="374"/>
      <point x="196" y="299" type="qcurve" smooth="yes"/>
      <point x="182" y="230" type="line"/>
      <point x="172" y="187"/>
      <point x="172" y="150" type="qcurve" smooth="yes"/>
      <point x="172" y="89"/>
    </contour>
    <contour>
      <point x="232" y="-200" type="line"/>
      <point x="289" y="87" type="line"/>
      <point x="283" y="87" type="line"/>
      <point x="255" y="33"/>
      <point x="193" y="-12"/>
      <point x="148" y="-12" type="qcurve" smooth="yes"/>
      <point x="35" y="-12"/>
      <point x="35" y="141" type="qcurve" smooth="yes"/>
      <point x="35" y="317"/>
      <point x="98" y="427" type="qcurve" smooth="yes"/>
      <point x="163" y="537"/>
      <point x="258" y="537" type="qcurve" smooth="yes"/>
      <point x="341" y="537"/>
      <point x="355" y="438" type="qcurve"/>
      <point x="360" y="438" type="line"/>
      <point x="414" y="710" type="line"/>
      <point x="554" y="710" type="line"/>
      <point x="500" y="438" type="line"/>
      <point x="506" y="438" type="line"/>
      <point x="534" y="492"/>
      <point x="596" y="537"/>
      <point x="643" y="537" type="qcurve" smooth="yes"/>
      <point x="754" y="537"/>
      <point x="754" y="384" type="qcurve" smooth="yes"/>
      <point x="754" y="208"/>
      <point x="690" y="98" type="qcurve" smooth="yes"/>
      <point x="627" y="-12"/>
      <point x="531" y="-12" type="qcurve" smooth="yes"/>
      <point x="447" y="-12"/>
      <point x="434" y="87" type="qcurve"/>
      <point x="429" y="87" type="line"/>
      <point x="372" y="-200" type="line"/>
    </contour>
  </outline>
</glyph>
<glyph name="shchacyr" format="2">
  <advance width="907"/>
  <unicode hex="0449"/>
  <outline>
    <contour>
      <point x="669" y="-140" type="line"/>
      <point x="697" y="0" type="line"/>
      <point x="659" y="0"/>
      <point x="610" y="40"/>
      <point x="610" y="77" type="qcurve" smooth="yes"/>
      <point x="610" y="91"/>
      <point x="614" y="113"/>
      <point x="616" y="122" type="qcurve"/>
      <point x="610" y="122" type="line"/>
      <point x="545" y="-12"/>
      <point x="443" y="-12" type="qcurve" smooth="yes"/>
      <point x="389" y="-12"/>
      <point x="331" y="59"/>
      <point x="331" y="122" type="qcurve"/>
      <point x="326" y="122" type="line"/>
      <point x="261" y="-12"/>
      <point x="155" y="-12" type="qcurve" smooth="yes"/>
      <point x="100" y="-12"/>
      <point x="40" y="57"/>
      <point x="40" y="117" type="qcurve" smooth="yes"/>
      <point x="40" y="170"/>
      <point x="52" y="212" type="qcurve"/>
      <point x="114" y="525" type="line"/>
      <point x="254" y="525" type="line"/>
      <point x="192" y="213" type="line"/>
      <point x="184" y="184"/>
      <point x="184" y="154" type="qcurve" smooth="yes"/>
      <point x="184" y="133"/>
      <point x="204" y="105"/>
      <point x="226" y="105" type="qcurve" smooth="yes"/>
      <point x="267" y="105"/>
      <point x="303" y="151" type="qcurve" smooth="yes"/>
      <point x="340" y="197"/>
      <point x="352" y="255" type="qcurve" smooth="yes"/>
      <point x="406" y="525" type="line"/>
      <point x="545" y="525" type="line"/>
      <point x="483" y="213" type="line"/>
      <point x="475" y="184"/>
      <point x="475" y="154" type="qcurve" smooth="yes"/>
      <point x="475" y="133"/>
      <point x="495" y="105"/>
      <point x="517" y="105" type="qcurve" smooth="yes"/>
      <point x="558" y="105"/>
      <point x="594" y="151" type="qcurve" smooth="yes"/>
      <point x="631" y="197"/>
      <point x="643" y="255" type="qcurve" smooth="yes"/>
      <point x="697" y="525" type="line"/>
      <point x="837" y="525" type="line"/>
      <point x="754" y="112" type="line"/>
      <point x="844" y="112" type="line"/>
      <point x="793" y="-140" type="line"/>
    </contour>
  </outline>
</glyph>
<glyph name="softcyr" format="2">
  <advance width="548"/>
  <unicode hex="044C"/>
  <outline>
    <contour>
      <point x="269" y="102" type="line" smooth="yes"/>
      <point x="300" y="102"/>
      <point x="326" y="123" type="qcurve"/>
      <point x="362" y="154"/>
      <point x="362" y="211" type="qcurve" smooth="yes"/>
      <point x="362" y="235"/>
      <point x="330" y="267"/>
      <point x="301" y="267" type="qcurve" smooth="yes"/>
      <point x="207" y="267" type="line"/>
      <point x="174" y="102" type="line"/>
    </contour>
    <contour>
      <point x="14" y="0" type="line"/>
      <point x="119" y="525" type="line"/>
      <point x="259" y="525" type="line"/>
      <point x="227" y="369" type="line"/>
      <point x="355" y="369" type="line" smooth="yes"/>
      <point x="425" y="369"/>
      <point x="501" y="290"/>
      <point x="501" y="221" type="qcurve" smooth="yes"/>
      <point x="501" y="108"/>
      <point x="431" y="50" type="qcurve" smooth="yes"/>
      <point x="372" y="0"/>
      <point x="282" y="0" type="qcurve" smooth="yes"/>
    </contour>
  </outline>
</glyph>
<glyph name="katailcyr" format="2">
  <advance width="581"/>
  <unicode hex="049B"/>
  <outline>
    <contour>
      <point x="368" y="-140" type="line"/>
      <point x="397" y="3" type="line"/>
      <point x="345" y="13"/>
      <point x="320" y="79" type="qcurve"/>
      <point x="319" y="81" type="line"/>
      <point x="319" y="82" type="line"/>
      <point x="318" y="84" type="line"/>
      <point x="318" y="85" type="line"/>
      <point x="317" y="86" type="line"/>
      <point x="317" y="87"/>
      <point x="316" y="89" type="qcurve"/>
      <point x="316" y="90" type="line"/>
      <point x="315" y="91" type="line"/>
      <point x="315" y="92" type="line"/>
      <point x="314" y="94" type="line"/>
      <point x="314" y="95" type="line"/>
      <point x="312" y="100" type="line"/>
      <point x="312" y="101" type="line"/>
      <point x="311" y="102"/>
      <point x="310" y="104" type="qcurve"/>
      <point x="310" y="108" type="line"/>
      <point x="309" y="108"/>
      <point x="309" y="109" type="qcurve" smooth="yes"/>
      <point x="309" y="110" type="line" smooth="yes"/>
      <point x="309" y="111"/>
      <point x="308" y="112" type="qcurve"/>
      <point x="308" y="113" type="line" smooth="yes"/>
      <point x="308" y="114"/>
      <point x="307" y="115" type="qcurve"/>
      <point x="307" y="116" type="line"/>
      <point x="306" y="118" type="line"/>
      <point x="305" y="119" type="line"/>
      <point x="305" y="120" type="line" smooth="yes"/>
      <point x="305" y="121"/>
      <point x="304" y="122" type="qcurve"/>
      <point x="304" y="124" type="line"/>
      <point x="303" y="125" type="line"/>
      <point x="303" y="127" type="line"/>
      <point x="302" y="128" type="line"/>
      <point x="302" y="130" type="line"/>
      <point x="301" y="131" type="line"/>
      <point x="301" y="133" type="line"/>
      <point x="300" y="134" type="line"/>
      <point x="299" y="136" type="line"/>
      <point x="299" y="137" type="line"/>
      <point x="298" y="139" type="line"/>
      <point x="298" y="140" type="line"/>
      <point x="297" y="141"/>
      <point x="297" y="142" type="qcurve" smooth="yes"/>
      <point x="297" y="143" type="line"/>
      <point x="296" y="144"/>
      <point x="296" y="145" type="qcurve"/>
      <point x="284" y="178"/>
      <point x="271" y="211" type="qcurve"/>
      <point x="196" y="211" type="line"/>
      <point x="154" y="0" type="line"/>
      <point x="14" y="0" type="line"/>
      <point x="119" y="525" type="line"/>
      <point x="259" y="525" type="line"/>
      <point x="218" y="323" type="line"/>
      <point x="293" y="323" type="line"/>
      <point x="395" y="467" type="line" smooth="yes"/>
      <point x="418" y="499"/>
      <point x="467" y="525"/>
      <point x="509" y="525" type="qcurve" smooth="yes"/>
      <point x="574" y="525" type="line"/>
      <point x="551" y="413" type="line"/>
      <point x="501" y="413" type="line"/>
      <point x="431" y="314" type="line" smooth="yes"/>
      <point x="404" y="275"/>
      <point x="366" y="272" type="qcurve"/>
      <point x="365" y="266" type="line"/>
      <point x="382" y="261"/>
      <point x="406" y="240"/>
      <point x="414" y="217" type="qcurve" smooth="yes"/>
      <point x="453" y="112" type="line"/>
      <point x="543" y="112" type="line"/>
      <point x="492" y="-140" type="line"/>
    </contour>
  </outline>
</glyph>
<glyph name="Zhebrevecyr" format="2">
  <advance width="991"/>
  <unicode hex="04C1"/>
  <outline>
    <contour>
      <point x="838" y="0" type="line" smooth="yes"/>
      <point x="812" y="0"/>
      <point x="775" y="9"/>
      <point x="748" y="28"/>
      <point x="729" y="61"/>
      <point x="722" y="85" type="qcurve"/>
      <point x="656" y="289" type="line"/>
      <point x="574" y="289" type="line"/>
      <point x="516" y="0" type="line"/>
      <point x="367" y="0" type="line"/>
      <point x="425" y="289" type="line"/>
      <point x="344" y="289" type="line"/>
      <point x="210" y="75" type="line"/>
      <point x="166" y="0"/>
      <point x="78" y="0" type="qcurve" smooth="yes"/>
      <point x="-6" y="0" type="line"/>
      <point x="20" y="129" type="line"/>
      <point x="79" y="129" type="line"/>
      <point x="102" y="166"/>
      <point x="147" y="238"/>
      <point x="169" y="274" type="qcurve" smooth="yes"/>
      <point x="212" y="346"/>
      <point x="281" y="357" type="qcurve"/>
      <point x="282" y="363" type="line"/>
      <point x="247" y="376"/>
      <point x="231" y="420" type="qcurve" smooth="yes"/>
      <point x="175" y="569" type="line"/>
      <point x="116" y="569" type="line"/>
      <point x="142" y="698" type="line"/>
      <point x="179" y="698" type="line" smooth="yes"/>
      <point x="227" y="698"/>
      <point x="279" y="661"/>
      <point x="295" y="614" type="qcurve"/>
      <point x="369" y="417" type="line"/>
      <point x="450" y="417" type="line"/>
      <point x="507" y="698" type="line"/>
      <point x="656" y="698" type="line"/>
      <point x="599" y="417" type="line"/>
      <point x="681" y="417" type="line"/>
      <point x="829" y="627" type="line" smooth="yes"/>
      <point x="855" y="664"/>
      <point x="915" y="698"/>
      <point x="962" y="698" type="qcurve" smooth="yes"/>
      <point x="1021" y="698" type="line"/>
      <point x="995" y="569" type="line"/>
      <point x="942" y="569" type="line"/>
      <point x="843" y="428" type="line" smooth="yes"/>
      <point x="820" y="396"/>
      <point x="778" y="368"/>
      <point x="749" y="363" type="qcurve"/>
      <point x="748" y="357" type="line"/>
      <point x="788" y="343"/>
      <point x="804" y="291" type="qcurve" smooth="yes"/>
      <point x="856" y="129" type="line"/>
      <point x="915" y="129" type="line"/>
      <point x="889" y="0" type="line"/>
    </contour>
    <contour>
      <point x="592" y="740" type="qcurve" smooth="yes"/>
      <point x="483" y="740"/>
      <point x="446" y="852" type="qcurve" smooth="yes"/>
      <point x="429" y="903" type="line"/>
      <point x="544" y="946" type="line"/>
      <point x="560" y="845" type="line"/>
      <point x="578" y="838"/>
      <point x="605" y="838" type="qcurve" smooth="yes"/>
      <point x="635" y="838"/>
      <point x="648" y="845" type="qcurve"/>
      <point x="694" y="946" type="line"/>
      <point x="805" y="903" type="line"/>
      <point x="775" y="852" type="line"/>
      <point x="712" y="740"/>
    </contour>
  </outline>
</glyph>
<glyph name="baht-thai" format="2">
  <advance width="644"/>
  <unicode hex="0E3F"/>
  <outline>
    <contour>
      <point x="376" y="138" type="line" smooth="yes"/>
      <point x="434" y="138"/>
      <point x="451" y="200" type="qcurve"/>
      <point x="458" y="238"/>
      <point x="458" y="247" type="qcurve"/>
      <point x="456" y="294"/>
      <point x="404" y="294" type="qcurve" smooth="yes"/>
      <point x="374" y="294" type="line"/>
      <point x="343" y="138" type="line"/>
    </contour>
    <contour>
      <point x="336" y="560" type="line"/>
      <point x="271" y="560" type="line"/>
      <point x="241" y="407" type="line"/>
      <point x="306" y="407" type="line"/>
    </contour>
    <contour>
      <point x="406" y="407" type="line" smooth="yes"/>
      <point x="466" y="407"/>
      <point x="481" y="470" type="qcurve"/>
      <point x="487" y="501" type="line"/>
      <point x="488" y="514" type="line"/>
      <point x="488" y="537"/>
      <point x="459" y="560"/>
      <point x="427" y="560" type="qcurve"/>
      <point x="396" y="407" type="line"/>
    </contour>
    <contour>
      <point x="283" y="294" type="line"/>
      <point x="218" y="294" type="line"/>
      <point x="187" y="138" type="line"/>
      <point x="252" y="138" type="line"/>
    </contour>
    <contour>
      <point x="198" y="-90" type="line"/>
      <point x="219" y="20" type="line"/>
      <point x="26" y="20" type="line"/>
      <point x="158" y="678" type="line"/>
      <point x="351" y="678" type="line"/>
      <point x="372" y="780" type="line"/>
      <point x="481" y="780" type="line"/>
      <point x="460" y="678" type="line"/>
      <point x="545" y="674"/>
      <point x="633" y="592"/>
      <point x="633" y="529" type="qcurve" smooth="yes"/>
      <point x="633" y="466"/>
      <point x="555" y="385"/>
      <point x="492" y="370" type="qcurve"/>
      <point x="491" y="365" type="line"/>
      <point x="540" y="354"/>
      <point x="597" y="282"/>
      <point x="597" y="231" type="qcurve" smooth="yes"/>
      <point x="597" y="147"/>
      <point x="530" y="83" type="qcurve" smooth="yes"/>
      <point x="462" y="20"/>
      <point x="353" y="20" type="qcurve" smooth="yes"/>
      <point x="329" y="20" type="line"/>
      <point x="307" y="-90" type="line"/>
    </contour>
  </outline>
</glyph>
<glyph name="wdieresis" format="2">
  <advance width="786"/>
  <unicode hex="1E85"/>
  <outline>
    <contour>
      <point x="436" y="0" type="line"/>
      <point x="430" y="70"/>
      <point x="417" y="209"/>
      <point x="412" y="279" type="qcurve" smooth="yes"/>
      <point x="407" y="355" type="line"/>
      <point x="401" y="355" type="line"/>
      <point x="239" y="0" type="line"/>
      <point x="95" y="0" type="line"/>
      <point x="56" y="524" type="line"/>
      <point x="189" y="524" type="line"/>
      <point x="192" y="430"/>
      <point x="197" y="243"/>
      <point x="199" y="149" type="qcurve"/>
      <point x="205" y="149" type="line"/>
      <point x="373" y="524" type="line"/>
      <point x="497" y="524" type="line"/>
      <point x="504" y="427"/>
      <point x="518" y="240"/>
      <point x="523" y="143" type="qcurve"/>
      <point x="529" y="143" type="line"/>
      <point x="685" y="524" type="line"/>
      <point x="817" y="524" type="line"/>
      <point x="577" y="0" type="line"/>
    </contour>
    <contour>
      <point x="353" y="602" type="qcurve" smooth="yes"/>
      <point x="321" y="602"/>
      <point x="290" y="628"/>
      <point x="290" y="648" type="qcurve" smooth="yes"/>
      <point x="290" y="692"/>
      <point x="330" y="748"/>
      <point x="378" y="748" type="qcurve" smooth="yes"/>
      <point x="410" y="748"/>
      <point x="441" y="721"/>
      <point x="441" y="701" type="qcurve" smooth="yes"/>
      <point x="441" y="653"/>
      <point x="398" y="602"/>
    </contour>
    <contour>
      <point x="551" y="602" type="qcurve" smooth="yes"/>
      <point x="519" y="602"/>
      <point x="488" y="628"/>
      <point x="488" y="648" type="qcurve" smooth="yes"/>
      <point x="488" y="695"/>
      <point x="531" y="748"/>
      <point x="576" y="748" type="qcurve" smooth="yes"/>
      <point x="610" y="748"/>
      <point x="639" y="721"/>
      <point x="639" y="701" type="qcurve" smooth="yes"/>
      <point x="639" y="649"/>
      <point x="593" y="602"/>
    </contour>
  </outline>
</glyph>
<glyph name="Germandbls" format="2">
  <advance width="722"/>
  <unicode hex="1E9E"/>
  <outline>
    <contour>
      <point x="419" y="-12" type="qcurve" smooth="yes"/>
      <point x="277" y="-12"/>
      <point x="228" y="81" type="qcurve"/>
      <point x="331" y="161" type="line"/>
      <point x="347" y="135"/>
      <point x="390" y="105"/>
      <point x="425" y="105" type="qcurve" smooth="yes"/>
      <point x="453" y="105"/>
      <point x="495" y="128"/>
      <point x="522" y="167"/>
      <point x="535" y="215"/>
      <point x="535" y="241" type="qcurve" smooth="yes"/>
      <point x="535" y="283"/>
      <point x="481" y="305"/>
      <point x="426" y="305" type="qcurve" smooth="yes"/>
      <point x="354" y="305" type="line"/>
      <point x="376" y="418" type="line"/>
      <point x="544" y="576" type="line"/>
      <point x="277" y="576" type="line"/>
      <point x="162" y="0" type="line"/>
      <point x="24" y="0" type="line"/>
      <point x="164" y="698" type="line"/>
      <point x="712" y="698" type="line"/>
      <point x="685" y="565" type="line"/>
      <point x="525" y="414" type="line"/>
      <point x="525" y="412"/>
      <point x="524" y="411"/>
      <point x="524" y="409" type="qcurve"/>
      <point x="556" y="407"/>
      <point x="611" y="382"/>
      <point x="652" y="339"/>
      <point x="675" y="280"/>
      <point x="675" y="244" type="qcurve" smooth="yes"/>
      <point x="675" y="197"/>
      <point x="641" y="106"/>
      <point x="576" y="33"/>
      <point x="480" y="-12"/>
    </contour>
  </outline>
</glyph>
<glyph name="Ehoi" format="2">
  <advance width="578"/>
  <unicode hex="1EBA"/>
  <outline>
    <contour>
      <point x="22" y="0" type="line"/>
      <point x="162" y="698" type="line"/>
      <point x="611" y="698" type="line"/>
      <point x="585" y="570" type="line"/>
      <point x="282" y="570" type="line"/>
      <point x="251" y="417" type="line"/>
      <point x="519" y="417" type="line"/>
      <point x="493" y="289" type="line"/>
      <point x="225" y="289" type="line"/>
      <point x="193" y="128" type="line"/>
      <point x="507" y="128" type="line"/>
      <point x="481" y="0" type="line"/>
    </contour>
    <contour>
      <point x="375" y="765" type="line"/>
      <point x="424" y="858" type="line"/>
      <point x="307" y="858" type="line"/>
      <point x="327" y="962" type="line"/>
      <point x="473" y="962" type="line" smooth="yes"/>
      <point x="512" y="962"/>
      <point x="551" y="929"/>
      <point x="551" y="905" type="qcurve" smooth="yes"/>
      <point x="551" y="873"/>
      <point x="522" y="824"/>
      <point x="500" y="797" type="qcurve" smooth="yes"/>
      <point x="444" y="731" type="line"/>
    </contour>
  </outline>
</glyph>
<glyph name="Uhornacute" format="2">
  <advance width="678"/>
  <unicode hex="1EE8"/>
  <outline>
    <contour>
      <point x="308" y="-12" type="qcurve" smooth="yes"/>
      <point x="72" y="-9"/>
      <point x="72" y="214" type="qcurve" smooth="yes"/>
      <point x="72" y="255"/>
      <point x="81" y="303" type="qcurve" smooth="yes"/>
      <point x="160" y="698" type="line"/>
      <point x="303" y="698" type="line"/>
      <point x="220" y="283" type="line" smooth="yes"/>
      <point x="213" y="251"/>
      <point x="213" y="220" type="qcurve" smooth="yes"/>
      <point x="213" y="120"/>
      <point x="315" y="120" type="qcurve" smooth="yes"/>
      <point x="435" y="120"/>
      <point x="461" y="270" type="qcurve"/>
      <point x="547" y="698" type="line"/>
      <point x="630" y="698" type="line"/>
      <point x="651" y="804" type="line"/>
      <point x="776" y="804" type="line"/>
      <point x="771" y="780"/>
      <point x="762" y="732"/>
      <point x="757" y="708" type="qcurve" smooth="yes"/>
      <point x="748" y="659"/>
      <point x="726" y="636" type="qcurve" smooth="yes"/>
      <point x="703" y="613"/>
      <point x="673" y="613" type="qcurve"/>
      <point x="605" y="275" type="line" smooth="yes"/>
      <point x="591" y="201"/>
      <point x="544" y="93"/>
      <point x="472" y="23"/>
      <point x="374" y="-12"/>
    </contour>
    <contour>
      <point x="357" y="785" type="line"/>
      <point x="476" y="975" type="line"/>
      <point x="588" y="915" type="line"/>
      <point x="441" y="739" type="line"/>
    </contour>
  </outline>
</glyph>
<glyph name="Ygrave" format="2">
  <advance width="619"/>
  <unicode hex="1EF2"/>
  <outline>
    <contour>
      <point x="265" y="916" type="line"/>
      <point x="385" y="972" type="line"/>
      <point x="453" y="779" type="line"/>
      <point x="368" y="741" type="line"/>
    </contour>
    <contour>
      <point x="186" y="0" type="line"/>
      <point x="240" y="271" type="line"/>
      <point x="92" y="698" type="line"/>
      <point x="234" y="698" type="line"/>
      <point x="330" y="399" type="line"/>
      <point x="337" y="399" type="line"/>
      <point x="543" y="698" type="line"/>
      <point x="696" y="698" type="line"/>
      <point x="377" y="259" type="line"/>
      <point x="325" y="0" type="line"/>
    </contour>
  </outline>
</glyph>
<glyph name="quoteleft" format="2">
  <advance width="285"/>
  <unicode hex="2018"/>
  <outline>
    <contour>
      <point x="173" y="445" type="qcurve" smooth="yes"/>
      <point x="133" y="445"/>
      <point x="101" y="482"/>
      <point x="101" y="504" type="qcurve" smooth="yes"/>
      <point x="101" y="531"/>
      <point x="122" y="594"/>
      <point x="160" y="657"/>
      <point x="213" y="716"/>
      <point x="245" y="740" type="qcurve"/>
      <point x="341" y="740" type="line"/>
      <point x="262" y="682"/>
      <point x="224" y="610" type="qcurve"/>
      <point x="250" y="604"/>
      <point x="273" y="574"/>
      <point x="273" y="557" type="qcurve" smooth="yes"/>
      <point x="273" y="536"/>
      <point x="263" y="495"/>
      <point x="240" y="464"/>
      <point x="201" y="445"/>
    </contour>
  </outline>
</glyph>
<glyph name="quotedblright" format="2">
  <advance width="515"/>
  <unicode hex="201D"/>
  <outline>
    <contour>
      <point x="300" y="455" type="line"/>
      <point x="379" y="513"/>
      <point x="417" y="585" type="qcurve"/>
      <point x="391" y="591"/>
      <point x="367" y="621"/>
      <point x="367" y="638" type="qcurve" smooth="yes"/>
      <point x="367" y="659"/>
      <point x="378" y="700"/>
      <point x="402" y="731"/>
      <point x="440" y="750"/>
      <point x="467" y="750" type="qcurve" smooth="yes"/>
      <point x="508" y="750"/>
      <point x="540" y="712"/>
      <point x="540" y="691" type="qcurve" smooth="yes"/>
      <point x="540" y="664"/>
      <point x="519" y="602"/>
      <point x="482" y="539"/>
      <point x="428" y="479"/>
      <point x="395" y="455" type="qcurve"/>
    </contour>
    <contour>
      <point x="69" y="455" type="line"/>
      <point x="149" y="513"/>
      <point x="186" y="585" type="qcurve"/>
      <point x="160" y="591"/>
      <point x="137" y="621"/>
      <point x="137" y="638" type="qcurve" smooth="yes"/>
      <point x="137" y="659"/>
      <point x="148" y="700"/>
      <point x="172" y="731"/>
      <point x="210" y="750"/>
      <point x="237" y="750" type="qcurve" smooth="yes"/>
      <point x="277" y="750"/>
      <point x="309" y="712"/>
      <point x="309" y="691" type="qcurve" smooth="yes"/>
      <point x="309" y="664"/>
      <point x="289" y="602"/>
      <point x="251" y="539"/>
      <point x="198" y="479"/>
      <point x="165" y="455" type="qcurve"/>
    </contour>
  </outline>
</glyph>
<glyph name="daggerdbl" format="2">
  <advance width="531"/>
  <unicode hex="2021"/>
  <outline>
    <contour>
      <point x="114" y="-200" type="line"/>
      <point x="159" y="25" type="line"/>
      <point x="-12" y="25" type="line"/>
      <point x="8" y="127" type="line"/>
      <point x="179" y="127" type="line"/>
      <point x="237" y="413" type="line"/>
      <point x="63" y="413" type="line"/>
      <point x="83" y="515" type="line"/>
      <point x="257" y="515" type="line"/>
      <point x="302" y="740" type="line"/>
      <point x="419" y="740" type="line"/>
      <point x="374" y="515" type="line"/>
      <point x="545" y="515" type="line"/>
      <point x="525" y="413" type="line"/>
      <point x="354" y="413" type="line"/>
      <point x="297" y="127" type="line"/>
      <point x="469" y="127" type="line"/>
      <point x="449" y="25" type="line"/>
      <point x="276" y="25" type="line"/>
      <point x="231" y="-200" type="line"/>
    </contour>
  </outline>
</glyph>
<glyph name="guilsinglleft" format="2">
  <advance width="311"/>
  <unicode hex="2039"/>
  <outline>
    <contour>
      <point x="34" y="213" type="line"/>
      <point x="59" y="336" type="line"/>
      <point x="263" y="493" type="line"/>
      <point x="301" y="404" type="line"/>
      <point x="149" y="265" type="line"/>
      <point x="244" y="132" type="line"/>
      <point x="190" y="52" type="line"/>
    </contour>
  </outline>
</glyph>
<glyph name="zero.inferior" format="2">
  <advance width="360"/>
  <unicode hex="2080"/>
  <outline>
    <contour>
      <point x="145" y="70" type="qcurve" smooth="yes"/>
      <point x="151" y="70" type="line" smooth="yes"/>
      <point x="169" y="70"/>
      <point x="191" y="95"/>
      <point x="205" y="140"/>
      <point x="214" y="195"/>
      <point x="220" y="222" type="qcurve" smooth="yes"/>
      <point x="224" y="239"/>
      <point x="224" y="255" type="qcurve" smooth="yes"/>
      <point x="224" y="276"/>
      <point x="206" y="299"/>
      <point x="183" y="299" type="qcurve" smooth="yes"/>
      <point x="177" y="299" type="line" smooth="yes"/>
      <point x="159" y="299"/>
      <point x="137" y="274"/>
      <point x="123" y="229"/>
      <point x="114" y="174"/>
      <point x="108" y="147" type="qcurve" smooth="yes"/>
      <point x="104" y="130"/>
      <point x="104" y="114" type="qcurve" smooth="yes"/>
      <point x="104" y="93"/>
      <point x="122" y="70"/>
    </contour>
    <contour>
      <point x="140" y="-6" type="qcurve" smooth="yes"/>
      <point x="65" y="-6"/>
      <point x="33" y="44" type="qcurve"/>
      <point x="9" y="78"/>
      <point x="9" y="134" type="qcurve" smooth="yes"/>
      <point x="9" y="234"/>
      <point x="56" y="305" type="qcurve"/>
      <point x="105" y="375"/>
      <point x="188" y="375" type="qcurve" smooth="yes"/>
      <point x="261" y="375"/>
      <point x="296" y="325" type="qcurve"/>
      <point x="319" y="288"/>
      <point x="319" y="235" type="qcurve" smooth="yes"/>
      <point x="319" y="134"/>
      <point x="270" y="64" type="qcurve" smooth="yes"/>
      <point x="222" y="-6"/>
    </contour>
  </outline>
</glyph>
<glyph name="newsheqel" format="2">
  <advance width="885"/>
  <unicode hex="20AA"/>
  <outline>
    <contour>
      <point x="22" y="0" type="line"/>
      <point x="162" y="698" type="line"/>
      <point x="468" y="698" type="line" smooth="yes"/>
      <point x="559" y="698"/>
      <point x="655" y="605"/>
      <point x="655" y="524" type="qcurve" smooth="yes"/>
      <point x="655" y="510"/>
      <point x="652" y="477"/>
      <point x="648" y="457" type="qcurve" smooth="yes"/>
      <point x="594" y="189" type="line"/>
      <point x="464" y="189" type="line"/>
      <point x="520" y="469" type="line"/>
      <point x="522" y="481"/>
      <point x="525" y="503"/>
      <point x="525" y="514" type="qcurve" smooth="yes"/>
      <point x="525" y="578"/>
      <point x="455" y="578" type="qcurve" smooth="yes"/>
      <point x="268" y="578" type="line"/>
      <point x="152" y="0" type="line"/>
    </contour>
    <contour>
      <point x="222" y="0" type="line"/>
      <point x="325" y="509" type="line"/>
      <point x="455" y="509" type="line"/>
      <point x="377" y="120" type="line"/>
      <point x="522" y="120" type="line" smooth="yes"/>
      <point x="598" y="120"/>
      <point x="630" y="147" type="qcurve" smooth="yes"/>
      <point x="663" y="175"/>
      <point x="676" y="245" type="qcurve" smooth="yes"/>
      <point x="767" y="698" type="line"/>
      <point x="897" y="698" type="line"/>
      <point x="807" y="249" type="line"/>
      <point x="784" y="118"/>
      <point x="720" y="60" type="qcurve"/>
      <point x="658" y="0"/>
      <point x="498" y="0" type="qcurve" smooth="yes"/>
    </contour>
  </outline>
</glyph>
<glyph name="dong" format="2">
  <advance width="569"/>
  <unicode hex="20AB"/>
  <outline>
    <contour>
      <point x="269" y="251" type="qcurve" smooth="yes"/>
      <point x="294" y="251"/>
      <point x="328" y="267"/>
      <point x="349" y="292"/>
      <point x="360" y="324"/>
      <point x="363" y="340" type="qcurve" smooth="yes"/>
      <point x="366" y="356"/>
      <point x="371" y="383"/>
      <point x="373" y="394" type="qcurve"/>
      <point x="373" y="403"/>
      <point x="365" y="421"/>
      <point x="347" y="437"/>
      <point x="317" y="447"/>
      <point x="294" y="447" type="qcurve" smooth="yes"/>
      <point x="227" y="447"/>
      <point x="208" y="377" type="qcurve" smooth="yes"/>
      <point x="207" y="373"/>
      <point x="205" y="367" type="qcurve"/>
      <point x="203" y="354" type="line"/>
      <point x="200" y="339"/>
      <point x="198" y="319"/>
      <point x="198" y="314" type="qcurve" smooth="yes"/>
      <point x="198" y="282"/>
      <point x="235" y="251"/>
    </contour>
    <contour>
      <point x="17" y="0" type="line"/>
      <point x="38" y="99" type="line"/>
      <point x="469" y="99" type="line"/>
      <point x="449" y="0" type="line"/>
    </contour>
    <contour>
      <point x="199" y="154" type="qcurve" smooth="yes"/>
      <point x="142" y="154"/>
      <point x="67" y="228"/>
      <point x="67" y="307" type="qcurve" smooth="yes"/>
      <point x="67" y="357"/>
      <point x="95" y="442"/>
      <point x="144" y="505"/>
      <point x="208" y="541"/>
      <point x="246" y="542" type="qcurve"/>
      <point x="255" y="542" type="line" smooth="yes"/>
      <point x="289" y="542"/>
      <point x="314" y="534" type="qcurve" smooth="yes"/>
      <point x="343" y="525"/>
      <point x="374" y="488"/>
      <point x="381" y="462" type="qcurve"/>
      <point x="387" y="462" type="line"/>
      <point x="414" y="597" type="line"/>
      <point x="289" y="597" type="line"/>
      <point x="307" y="683" type="line"/>
      <point x="432" y="683" type="line"/>
      <point x="443" y="740" type="line"/>
      <point x="574" y="740" type="line"/>
      <point x="563" y="683" type="line"/>
      <point x="618" y="683" type="line"/>
      <point x="601" y="597" type="line"/>
      <point x="546" y="597" type="line"/>
      <point x="458" y="162" type="line"/>
      <point x="327" y="162" type="line"/>
      <point x="343" y="237" type="line"/>
      <point x="336" y="237" type="line"/>
      <point x="315" y="202"/>
      <point x="250" y="154"/>
    </contour>
  </outline>
</glyph>
<glyph name="seveneighths" format="2">
  <advance width="824"/>
  <unicode hex="215E"/>
  <outline>
    <contour>
      <point x="601" y="63" type="qcurve" smooth="yes"/>
      <point x="632" y="63"/>
      <point x="661" y="97"/>
      <point x="661" y="122" type="qcurve" smooth="yes"/>
      <point x="661" y="133"/>
      <point x="655" y="139" type="qcurve"/>
      <point x="647" y="154"/>
      <point x="618" y="154" type="qcurve" smooth="yes"/>
      <point x="589" y="154"/>
      <point x="558" y="121"/>
      <point x="558" y="95" type="qcurve" smooth="yes"/>
      <point x="558" y="83"/>
      <point x="565" y="76" type="qcurve"/>
      <point x="575" y="63"/>
    </contour>
    <contour>
      <point x="635" y="219" type="qcurve" smooth="yes"/>
      <point x="664" y="219"/>
      <point x="694" y="251"/>
      <point x="694" y="278" type="qcurve" smooth="yes"/>
      <point x="694" y="292"/>
      <point x="671" y="306"/>
      <point x="652" y="306" type="qcurve" smooth="yes"/>
      <point x="623" y="306"/>
      <point x="593" y="275"/>
      <point x="593" y="249" type="qcurve" smooth="yes"/>
      <point x="593" y="233"/>
      <point x="615" y="219"/>
    </contour>
    <contour>
      <point x="590" y="-6" type="qcurve" smooth="yes"/>
      <point x="526" y="-6"/>
      <point x="463" y="42"/>
      <point x="463" y="85" type="qcurve" smooth="yes"/>
      <point x="463" y="165"/>
      <point x="555" y="189" type="qcurve"/>
      <point x="555" y="190"/>
      <point x="556" y="191"/>
      <point x="556" y="192" type="qcurve"/>
      <point x="509" y="213"/>
      <point x="509" y="267" type="qcurve" smooth="yes"/>
      <point x="509" y="291"/>
      <point x="532" y="331"/>
      <point x="573" y="359"/>
      <point x="629" y="375"/>
      <point x="663" y="375" type="qcurve" smooth="yes"/>
      <point x="725" y="375"/>
      <point x="783" y="327"/>
      <point x="783" y="288" type="qcurve" smooth="yes"/>
      <point x="783" y="254"/>
      <point x="761" y="229" type="qcurve"/>
      <point x="758" y="226"/>
      <point x="739" y="213"/>
      <point x="718" y="201"/>
      <point x="702" y="191"/>
      <point x="702" y="190" type="qcurve"/>
      <point x="729" y="181"/>
      <point x="759" y="146"/>
      <point x="759" y="117" type="qcurve" smooth="yes"/>
      <point x="759" y="90"/>
      <point x="733" y="45"/>
      <point x="688" y="12"/>
      <point x="626" y="-6"/>
    </contour>
    <contour>
      <point x="15" y="0" type="line"/>
      <point x="667" y="698" type="line"/>
      <point x="777" y="698" type="line"/>
      <point x="124" y="0" type="line"/>
    </contour>
    <contour>
      <point x="192" y="329" type="line"/>
      <point x="90" y="329" type="line"/>
      <point x="280" y="624" type="line"/>
      <point x="87" y="624" type="line"/>
      <point x="103" y="698" type="line"/>
      <point x="389" y="698" type="line"/>
      <point x="374" y="620" type="line"/>
    </contour>
  </outline>
</glyph>
<glyph name="arrowleft" format="2">
  <advance width="892"/>
  <unicode hex="2190"/>
  <outline>
    <contour>
      <point x="91" y="349" type="line"/>
      <point x="327" y="585" type="line"/>
      <point x="404" y="508" type="line"/>
      <point x="341" y="445" type="line"/>
      <point x="296" y="407" type="line"/>
      <point x="297" y="403" type="line"/>
      <point x="379" y="407" type="line"/>
      <point x="801" y="407" type="line"/>
      <point x="801" y="291" type="line"/>
      <point x="379" y="291" type="line"/>
      <point x="297" y="295" type="line"/>
      <point x="296" y="291" type="line"/>
      <point x="341" y="253" type="line"/>
      <point x="404" y="190" type="line"/>
      <point x="327" y="113" type="line"/>
    </contour>
  </outline>
</glyph>
<glyph name="arrowdown" format="2">
  <advance width="892"/>
  <unicode hex="2193"/>
  <outline>
    <contour>
      <point x="210" y="224" type="line"/>
      <point x="287" y="301" type="line"/>
      <point x="350" y="238" type="line"/>
      <point x="388" y="193" type="line"/>
      <point x="392" y="194" type="line"/>
      <point x="388" y="276" type="line"/>
      <point x="388" y="698" type="line"/>
      <point x="504" y="698" type="line"/>
      <point x="504" y="276" type="line"/>
      <point x="500" y="194" type="line"/>
      <point x="504" y="193" type="line"/>
      <point x="542" y="238" type="line"/>
      <point x="605" y="301" type="line"/>
      <point x="682" y="224" type="line"/>
      <point x="446" y="-12" type="line"/>
    </contour>
  </outline>
</glyph>
<glyph name="arrowrightdowntip" format="2">
  <advance width="892"/>
  <unicode hex="21B3"/>
  <outline>
    <contour>
      <point x="402" y="77" type="line"/>
      <point x="464" y="139" type="line"/>
      <point x="509" y="178" type="line"/>
      <point x="508" y="182" type="line"/>
      <point x="426" y="177" type="line"/>
      <point x="185" y="177" type="line"/>
      <point x="185" y="698" type="line"/>
      <point x="301" y="698" type="line"/>
      <point x="301" y="294" type="line"/>
      <point x="426" y="294" type="line"/>
      <point x="508" y="290" type="line"/>
      <point x="509" y="294" type="line"/>
      <point x="464" y="332" type="line"/>
      <point x="402" y="395" type="line"/>
      <point x="478" y="472" type="line"/>
      <point x="714" y="236" type="line"/>
      <point x="478" y="0" type="line"/>
    </contour>
  </outline>
</glyph>
<glyph name="arrowanticlockwisesemicircle" format="2">
  <advance width="892"/>
  <unicode hex="21B6"/>
  <outline>
    <contour>
      <point x="25" y="274" type="line"/>
      <point x="101" y="351" type="line"/>
      <point x="164" y="288" type="line"/>
      <point x="202" y="243" type="line"/>
      <point x="203" y="243"/>
      <point x="205" y="244"/>
      <point x="206" y="244" type="qcurve"/>
      <point x="204" y="295" type="line" smooth="yes"/>
      <point x="203" y="315"/>
      <point x="202" y="338"/>
      <point x="202" y="343" type="qcurve" smooth="yes"/>
      <point x="202" y="415"/>
      <point x="246" y="539"/>
      <point x="331" y="629"/>
      <point x="455" y="681"/>
      <point x="535" y="681" type="qcurve" smooth="yes"/>
      <point x="620" y="681"/>
      <point x="745" y="625"/>
      <point x="827" y="531"/>
      <point x="867" y="409"/>
      <point x="867" y="343" type="qcurve"/>
      <point x="751" y="343" type="line"/>
      <point x="751" y="392"/>
      <point x="725" y="473"/>
      <point x="672" y="533"/>
      <point x="590" y="569"/>
      <point x="535" y="572" type="qcurve"/>
      <point x="428" y="572"/>
      <point x="370" y="502" type="qcurve" smooth="yes"/>
      <point x="353" y="481"/>
      <point x="333" y="439"/>
      <point x="322" y="389"/>
      <point x="318" y="331"/>
      <point x="317" y="295" type="qcurve" smooth="yes"/>
      <point x="315" y="244" type="line"/>
      <point x="316" y="244"/>
      <point x="317" y="243"/>
      <point x="318" y="243" type="qcurve"/>
      <point x="357" y="288" type="line"/>
      <point x="419" y="351" type="line"/>
      <point x="496" y="274" type="line"/>
      <point x="260" y="38" type="line"/>
    </contour>
  </outline>
</glyph>
<glyph name="ff" format="2">
  <advance width="654"/>
  <unicode hex="FB00"/>
  <outline>
    <contour>
      <point x="-86" y="-200" type="line"/>
      <point x="-63" y="-92" type="line"/>
      <point x="33" y="-92" type="line"/>
      <point x="135" y="416" type="line"/>
      <point x="64" y="416" type="line"/>
      <point x="85" y="524" type="line"/>
      <point x="156" y="524" type="line"/>
      <point x="169" y="593" type="line"/>
      <point x="200" y="740"/>
      <point x="355" y="740" type="qcurve" smooth="yes"/>
      <point x="431" y="740" type="line"/>
      <point x="408" y="632" type="line"/>
      <point x="311" y="632" type="line"/>
      <point x="290" y="524" type="line"/>
      <point x="462" y="524" type="line"/>
      <point x="475" y="593" type="line"/>
      <point x="506" y="740"/>
      <point x="661" y="740" type="qcurve" smooth="yes"/>
      <point x="737" y="740" type="line"/>
      <point x="714" y="632" type="line"/>
      <point x="617" y="632" type="line"/>
      <point x="596" y="524" type="line"/>
      <point x="698" y="524" type="line"/>
      <point x="677" y="416" type="line"/>
      <point x="574" y="416" type="line"/>
      <point x="482" y="-48" type="line" smooth="yes"/>
      <point x="451" y="-200"/>
      <point x="295" y="-200" type="qcurve" smooth="yes"/>
      <point x="220" y="-200" type="line"/>
      <point x="243" y="-92" type="line"/>
      <point x="339" y="-92" type="line"/>
      <point x="441" y="416" type="line"/>
      <point x="268" y="416" type="line"/>
      <point x="176" y="-48" type="line" smooth="yes"/>
      <point x="145" y="-200"/>
      <point x="-11" y="-200" type="qcurve" smooth="yes"/>
    </contour>
  </outline>
</glyph>
<glyph name="fl" format="2">
  <advance width="633"/>
  <unicode hex="FB02"/>
  <outline>
    <contour>
      <point x="474" y="0" type="line" smooth="yes"/>
      <point x="432" y="0"/>
      <point x="384" y="44"/>
      <point x="384" y="80" type="qcurve" smooth="yes"/>
      <point x="384" y="92"/>
      <point x="492" y="628" type="qcurve"/>
      <point x="316" y="628" type="line"/>
      <point x="296" y="525" type="line"/>
      <point x="398" y="525" type="line"/>
      <point x="376" y="413" type="line"/>
      <point x="273" y="413" type="line"/>
      <point x="181" y="-50" type="line" smooth="yes"/>
      <point x="167" y="-125"/>
      <point x="81" y="-200"/>
      <point x="-1" y="-200" type="qcurve" smooth="yes"/>
      <point x="-87" y="-200" type="line"/>
      <point x="-63" y="-88" type="line"/>
      <point x="33" y="-88" type="line"/>
      <point x="133" y="413" type="line"/>
      <point x="64" y="413" type="line"/>
      <point x="86" y="525" type="line"/>
      <point x="155" y="525" type="line"/>
      <point x="168" y="590" type="line" smooth="yes"/>
      <point x="198" y="740"/>
      <point x="360" y="740" type="qcurve" smooth="yes"/>
      <point x="654" y="740" type="line"/>
      <point x="528" y="112" type="line"/>
      <point x="590" y="112" type="line"/>
      <point x="568" y="0" type="line"/>
    </contour>
  </outline>
</glyph>
<glyph name="ffi" format="2">
  <advance width="940"/>
  <unicode hex="FB03"/>
  <outline>
    <contour>
      <point x="858" y="584" type="qcurve" smooth="yes"/>
      <point x="821" y="584"/>
      <point x="788" y="615"/>
      <point x="788" y="639" type="qcurve"/>
      <point x="789" y="651" type="line"/>
      <point x="794" y="677" type="line" smooth="yes"/>
      <point x="800" y="708"/>
      <point x="845" y="749"/>
      <point x="888" y="749" type="qcurve" smooth="yes"/>
      <point x="925" y="749"/>
      <point x="958" y="718"/>
      <point x="958" y="694" type="qcurve"/>
      <point x="956" y="676" type="line"/>
      <point x="942" y="584"/>
    </contour>
    <contour>
      <point x="-86" y="-200" type="line"/>
      <point x="-63" y="-92" type="line"/>
      <point x="33" y="-92" type="line"/>
      <point x="135" y="416" type="line"/>
      <point x="64" y="416" type="line"/>
      <point x="85" y="524" type="line"/>
      <point x="156" y="524" type="line"/>
      <point x="169" y="593" type="line"/>
      <point x="200" y="740"/>
      <point x="355" y="740" type="qcurve" smooth="yes"/>
      <point x="431" y="740" type="line"/>
      <point x="408" y="632" type="line"/>
      <point x="311" y="632" type="line"/>
      <point x="290" y="525" type="line"/>
      <point x="460" y="525" type="line"/>
      <point x="473" y="590" type="line" smooth="yes"/>
      <point x="504" y="740"/>
      <point x="649" y="740" type="qcurve" smooth="yes"/>
      <point x="733" y="740" type="line"/>
      <point x="709" y="628" type="line"/>
      <point x="620" y="628" type="line"/>
      <point x="600" y="525" type="line"/>
      <point x="915" y="525" type="line"/>
      <point x="834" y="112" type="line"/>
      <point x="893" y="112" type="line"/>
      <point x="871" y="0" type="line"/>
      <point x="774" y="0" type="line" smooth="yes"/>
      <point x="736" y="0"/>
      <point x="688" y="43"/>
      <point x="688" y="78" type="qcurve" smooth="yes"/>
      <point x="688" y="91"/>
      <point x="691" y="105" type="qcurve" smooth="yes"/>
      <point x="753" y="413" type="line"/>
      <point x="578" y="413" type="line"/>
      <point x="486" y="-50" type="line" smooth="yes"/>
      <point x="470" y="-126"/>
      <point x="375" y="-200"/>
      <point x="302" y="-200" type="qcurve" smooth="yes"/>
      <point x="218" y="-200" type="line"/>
      <point x="242" y="-88" type="line"/>
      <point x="339" y="-88" type="line"/>
      <point x="438" y="413" type="line"/>
      <point x="267" y="413" type="line"/>
      <point x="176" y="-48" type="line" smooth="yes"/>
      <point x="145" y="-200"/>
      <point x="-11" y="-200" type="qcurve" smooth="yes"/>
    </contour>
  </outline>
</glyph>
<glyph name="ffl" format="2">
  <advance width="939"/>
  <unicode hex="FB04"/>
  <outline>
    <contour>
      <point x="-86" y="-200" type="curve"/>
      <point x="-63" y="-92" type="line"/>
      <point x="33" y="-92" type="line"/>
      <point x="135" y="416" type="line"/>
      <point x="64" y="416" type="line"/>
      <point x="85" y="524" type="line"/>
      <point x="156" y="524" type="line"/>
      <point x="179" y="651"/>
      <point x="204" y="740"/>
      <point x="355" y="740" type="curve" smooth="yes"/>
      <point x="431" y="740" type="line"/>
      <point x="408" y="632" type="line"/>
      <point x="311" y="632" type="line"/>
      <point x="290" y="525" type="line"/>
      <point x="461" y="525" type="line"/>
      <point x="474" y="590" type="line" smooth="yes"/>
      <point x="495" y="694"/>
      <point x="562" y="740"/>
      <point x="666" y="740" type="curve" smooth="yes"/>
      <point x="960" y="740" type="line"/>
      <point x="834" y="112" type="line"/>
      <point x="896" y="112" type="line"/>
      <point x="874" y="0" type="line"/>
      <point x="780" y="0" type="line" smooth="yes"/>
      <point x="730" y="0"/>
      <point x="690" y="26"/>
      <point x="690" y="80" type="curve" smooth="yes"/>
      <point x="690" y="109"/>
      <point x="716" y="219"/>
      <point x="722" y="251" type="curve" smooth="yes"/>
      <point x="747" y="377"/>
      <point x="773" y="502"/>
      <point x="798" y="628" type="curve"/>
      <point x="622" y="628" type="line"/>
      <point x="602" y="525" type="line"/>
      <point x="704" y="525" type="line"/>
      <point x="682" y="413" type="line"/>
      <point x="579" y="413" type="line"/>
      <point x="487" y="-50" type="line" smooth="yes"/>
      <point x="455" y="-210"/>
      <point x="355" y="-200"/>
      <point x="219" y="-200" type="curve"/>
      <point x="243" y="-88" type="line"/>
      <point x="339" y="-88" type="line"/>
      <point x="439" y="413" type="line"/>
      <point x="268" y="413" type="line"/>
      <point x="176" y="-48" type="line" smooth="yes"/>
      <point x="145" y="-201"/>
      <point x="44" y="-200"/>
    </contour>
  </outline>
</glyph>
<glyph name="eight.subs" format="2">
  <advance width="354"/>
  <outline>
    <contour>
      <point x="197" y="535" type="qcurve" smooth="yes"/>
      <point x="243" y="535"/>
      <point x="251" y="574" type="qcurve"/>
      <point x="254" y="584"/>
      <point x="254" y="594" type="qcurve" smooth="yes"/>
      <point x="254" y="622"/>
      <point x="214" y="622" type="qcurve" smooth="yes"/>
      <point x="167" y="622"/>
      <point x="160" y="583" type="qcurve"/>
      <point x="157" y="574"/>
      <point x="157" y="564" type="qcurve" smooth="yes"/>
      <point x="157" y="535"/>
    </contour>
    <contour>
      <point x="231" y="690" type="qcurve" smooth="yes"/>
      <point x="277" y="690"/>
      <point x="285" y="728" type="qcurve"/>
      <point x="288" y="738"/>
      <point x="288" y="747" type="qcurve" smooth="yes"/>
      <point x="288" y="774"/>
      <point x="248" y="774" type="qcurve" smooth="yes"/>
      <point x="202" y="774"/>
      <point x="194" y="736" type="qcurve"/>
      <point x="191" y="725"/>
      <point x="191" y="718" type="qcurve" smooth="yes"/>
      <point x="191" y="690"/>
    </contour>
    <contour>
      <point x="186" y="464" type="qcurve" smooth="yes"/>
      <point x="120" y="464"/>
      <point x="58" y="513"/>
      <point x="58" y="555" type="qcurve" smooth="yes"/>
      <point x="58" y="635"/>
      <point x="150" y="659" type="qcurve"/>
      <point x="151" y="662" type="line"/>
      <point x="105" y="683"/>
      <point x="105" y="737" type="qcurve" smooth="yes"/>
      <point x="105" y="778"/>
      <point x="141" y="810" type="qcurve"/>
      <point x="185" y="845"/>
      <point x="260" y="845" type="qcurve" smooth="yes"/>
      <point x="323" y="845"/>
      <point x="381" y="796"/>
      <point x="381" y="758" type="qcurve" smooth="yes"/>
      <point x="381" y="723"/>
      <point x="337" y="676"/>
      <point x="301" y="664" type="qcurve"/>
      <point x="300" y="660" type="line"/>
      <point x="327" y="651"/>
      <point x="356" y="617"/>
      <point x="356" y="587" type="qcurve" smooth="yes"/>
      <point x="356" y="540"/>
      <point x="313" y="503" type="qcurve"/>
      <point x="263" y="464"/>
    </contour>
  </outline>
</glyph>
<glyph name="five.sups" format="2">
  <advance width="347"/>
  <outline>
    <contour>
      <point x="190" y="-394" type="qcurve" smooth="yes"/>
      <point x="133" y="-394"/>
      <point x="69" y="-354"/>
      <point x="52" y="-318" type="qcurve"/>
      <point x="127" y="-273" type="line"/>
      <point x="143" y="-318"/>
      <point x="192" y="-318" type="qcurve" smooth="yes"/>
      <point x="221" y="-318"/>
      <point x="249" y="-291"/>
      <point x="252" y="-275" type="qcurve"/>
      <point x="253" y="-272" type="line"/>
      <point x="255" y="-262"/>
      <point x="255" y="-255" type="qcurve" smooth="yes"/>
      <point x="255" y="-235"/>
      <point x="229" y="-218"/>
      <point x="212" y="-218" type="qcurve" smooth="yes"/>
      <point x="189" y="-218"/>
      <point x="163" y="-233"/>
      <point x="155" y="-240" type="qcurve"/>
      <point x="79" y="-230" type="line"/>
      <point x="139" y="-19" type="line"/>
      <point x="386" y="-19" type="line"/>
      <point x="369" y="-102" type="line"/>
      <point x="189" y="-102" type="line"/>
      <point x="159" y="-207" type="line"/>
      <point x="165" y="-207" type="line"/>
      <point x="182" y="-174"/>
      <point x="228" y="-142"/>
      <point x="267" y="-142" type="qcurve" smooth="yes"/>
      <point x="306" y="-142"/>
      <point x="361" y="-196"/>
      <point x="361" y="-241" type="qcurve" smooth="yes"/>
      <point x="361" y="-268"/>
      <point x="340" y="-323"/>
      <point x="298" y="-366"/>
      <point x="233" y="-394"/>
    </contour>
  </outline>
</glyph>
<glyph name="nine.subs" format="2">
  <advance width="350"/>
  <outline>
    <contour>
      <point x="220" y="668" type="qcurve" smooth="yes"/>
      <point x="273" y="668"/>
      <point x="279" y="726" type="qcurve"/>
      <point x="279" y="737" type="line" smooth="yes"/>
      <point x="279" y="773"/>
      <point x="237" y="773" type="qcurve" smooth="yes"/>
      <point x="184" y="773"/>
      <point x="178" y="715" type="qcurve"/>
      <point x="178" y="704" type="line" smooth="yes"/>
      <point x="178" y="668"/>
    </contour>
    <contour>
      <point x="52" y="470" type="line"/>
      <point x="79" y="486" type="line" smooth="yes"/>
      <point x="111" y="504"/>
      <point x="164" y="539"/>
      <point x="186" y="556" type="qcurve"/>
      <point x="239" y="594"/>
      <point x="263" y="653" type="qcurve"/>
      <point x="258" y="655" type="line"/>
      <point x="224" y="597"/>
      <point x="165" y="597" type="qcurve" smooth="yes"/>
      <point x="122" y="597"/>
      <point x="76" y="652"/>
      <point x="76" y="694" type="qcurve" smooth="yes"/>
      <point x="76" y="752"/>
      <point x="120" y="799" type="qcurve" smooth="yes"/>
      <point x="165" y="845"/>
      <point x="244" y="845" type="qcurve" smooth="yes"/>
      <point x="310" y="845"/>
      <point x="377" y="774"/>
      <point x="377" y="714" type="qcurve" smooth="yes"/>
      <point x="377" y="634"/>
      <point x="319" y="569" type="qcurve" smooth="yes"/>
      <point x="263" y="506"/>
      <point x="194" y="470" type="qcurve"/>
    </contour>
  </outline>
</glyph>
<glyph name="six.sups" format="2">
  <advance width="350"/>
  <outline>
    <contour>
      <point x="208" y="-322" type="qcurve" smooth="yes"/>
      <point x="261" y="-322"/>
      <point x="267" y="-264" type="qcurve"/>
      <point x="267" y="-253" type="line" smooth="yes"/>
      <point x="267" y="-217"/>
      <point x="225" y="-217" type="qcurve" smooth="yes"/>
      <point x="172" y="-217"/>
      <point x="166" y="-275" type="qcurve"/>
      <point x="166" y="-286" type="line" smooth="yes"/>
      <point x="166" y="-322"/>
    </contour>
    <contour>
      <point x="201" y="-394" type="qcurve" smooth="yes"/>
      <point x="135" y="-394"/>
      <point x="68" y="-323"/>
      <point x="68" y="-263" type="qcurve" smooth="yes"/>
      <point x="68" y="-184"/>
      <point x="126" y="-117" type="qcurve"/>
      <point x="154" y="-87"/>
      <point x="216" y="-38"/>
      <point x="251" y="-19" type="qcurve"/>
      <point x="393" y="-19" type="line"/>
      <point x="351" y="-42"/>
      <point x="284" y="-84"/>
      <point x="258" y="-104" type="qcurve" smooth="yes"/>
      <point x="207" y="-142"/>
      <point x="182" y="-202" type="qcurve"/>
      <point x="187" y="-204" type="line"/>
      <point x="212" y="-165"/>
      <point x="245" y="-152" type="qcurve"/>
      <point x="258" y="-146"/>
      <point x="280" y="-146" type="qcurve" smooth="yes"/>
      <point x="323" y="-146"/>
      <point x="369" y="-201"/>
      <point x="369" y="-243" type="qcurve" smooth="yes"/>
      <point x="369" y="-302"/>
      <point x="326" y="-348" type="qcurve"/>
      <point x="281" y="-394"/>
    </contour>
  </outline>
</glyph>
<glyph name="three.subs" format="2">
  <advance width="332"/>
  <outline>
    <contour>
      <point x="171" y="464" type="qcurve" smooth="yes"/>
      <point x="62" y="464"/>
      <point x="34" y="537" type="qcurve"/>
      <point x="103" y="586" type="line"/>
      <point x="121" y="540"/>
      <point x="172" y="540" type="qcurve" smooth="yes"/>
      <point x="193" y="540"/>
      <point x="226" y="558"/>
      <point x="230" y="577" type="qcurve"/>
      <point x="232" y="591" type="line"/>
      <point x="232" y="620"/>
      <point x="184" y="620" type="qcurve" smooth="yes"/>
      <point x="144" y="620" type="line"/>
      <point x="159" y="697" type="line"/>
      <point x="195" y="697" type="line" smooth="yes"/>
      <point x="225" y="697"/>
      <point x="255" y="715"/>
      <point x="257" y="726" type="qcurve"/>
      <point x="259" y="740" type="line"/>
      <point x="256" y="769"/>
      <point x="215" y="769" type="qcurve" smooth="yes"/>
      <point x="175" y="769"/>
      <point x="138" y="726" type="qcurve"/>
      <point x="86" y="786" type="line"/>
      <point x="113" y="814"/>
      <point x="180" y="845"/>
      <point x="229" y="845" type="qcurve" smooth="yes"/>
      <point x="292" y="845"/>
      <point x="360" y="797"/>
      <point x="360" y="755" type="qcurve" smooth="yes"/>
      <point x="360" y="721"/>
      <point x="315" y="672"/>
      <point x="270" y="663" type="qcurve"/>
      <point x="270" y="661" type="line"/>
      <point x="334" y="648"/>
      <point x="334" y="587" type="qcurve" smooth="yes"/>
      <point x="334" y="533"/>
      <point x="249" y="464"/>
    </contour>
  </outline>
</glyph>
<glyph name="two.subs" format="2">
  <advance width="340"/>
  <outline>
    <contour>
      <point x="37" y="470" type="line"/>
      <point x="54" y="555" type="line"/>
      <point x="194" y="646" type="line"/>
      <point x="230" y="668"/>
      <point x="246" y="685" type="qcurve" smooth="yes"/>
      <point x="264" y="704"/>
      <point x="264" y="729" type="qcurve" smooth="yes"/>
      <point x="264" y="746"/>
      <point x="241" y="764"/>
      <point x="224" y="764" type="qcurve" smooth="yes"/>
      <point x="180" y="764"/>
      <point x="163" y="717" type="qcurve"/>
      <point x="81" y="748" type="line"/>
      <point x="124" y="845"/>
      <point x="232" y="845" type="qcurve" smooth="yes"/>
      <point x="290" y="845"/>
      <point x="366" y="790"/>
      <point x="366" y="739" type="qcurve" smooth="yes"/>
      <point x="366" y="691"/>
      <point x="302" y="624"/>
      <point x="239" y="589" type="qcurve"/>
      <point x="170" y="549" type="line"/>
      <point x="334" y="549" type="line"/>
      <point x="318" y="470" type="line"/>
    </contour>
  </outline>
</glyph>
<glyph name="two.sups" format="2">
  <advance width="340"/>
  <outline>
    <contour>
      <point x="37" y="-388" type="line"/>
      <point x="54" y="-303" type="line"/>
      <point x="194" y="-212" type="line"/>
      <point x="230" y="-190"/>
      <point x="246" y="-173" type="qcurve" smooth="yes"/>
      <point x="264" y="-154"/>
      <point x="264" y="-129" type="qcurve" smooth="yes"/>
      <point x="264" y="-112"/>
      <point x="241" y="-94"/>
      <point x="224" y="-94" type="qcurve" smooth="yes"/>
      <point x="180" y="-94"/>
      <point x="163" y="-141" type="qcurve"/>
      <point x="81" y="-110" type="line"/>
      <point x="124" y="-13"/>
      <point x="232" y="-13" type="qcurve" smooth="yes"/>
      <point x="290" y="-13"/>
      <point x="366" y="-68"/>
      <point x="366" y="-119" type="qcurve" smooth="yes"/>
      <point x="366" y="-167"/>
      <point x="302" y="-234"/>
      <point x="239" y="-269" type="qcurve"/>
      <point x="170" y="-309" type="line"/>
      <point x="334" y="-309" type="line"/>
      <point x="318" y="-388" type="line"/>
    </contour>
  </outline>
</glyph>
<glyph name="u03BC" format="2">
  <advance width="587"/>
  <outline>
    <contour>
      <point x="-66" y="-200" type="line"/>
      <point x="79" y="525" type="line"/>
      <point x="219" y="525" type="line"/>
      <point x="157" y="215" type="line" smooth="yes"/>
      <point x="154" y="201"/>
      <point x="150" y="171"/>
      <point x="150" y="160" type="qcurve" smooth="yes"/>
      <point x="150" y="134"/>
      <point x="173" y="105"/>
      <point x="199" y="105" type="qcurve" smooth="yes"/>
      <point x="225" y="105"/>
      <point x="266" y="132"/>
      <point x="283" y="153" type="qcurve" smooth="yes"/>
      <point x="319" y="196"/>
      <point x="331" y="255" type="qcurve" smooth="yes"/>
      <point x="385" y="525" type="line"/>
      <point x="525" y="525" type="line"/>
      <point x="442" y="112" type="line"/>
      <point x="501" y="112" type="line"/>
      <point x="479" y="0" type="line"/>
      <point x="386" y="0" type="line" smooth="yes"/>
      <point x="348" y="0"/>
      <point x="298" y="40"/>
      <point x="298" y="77" type="qcurve" smooth="yes"/>
      <point x="298" y="85"/>
      <point x="300" y="103"/>
      <point x="301" y="107" type="qcurve"/>
      <point x="304" y="122" type="line"/>
      <point x="298" y="122" type="line"/>
      <point x="280" y="84"/>
      <point x="247" y="32"/>
      <point x="213" y="1"/>
      <point x="178" y="-12"/>
      <point x="157" y="-12" type="qcurve" smooth="yes"/>
      <point x="105" y="-12"/>
      <point x="93" y="44" type="qcurve"/>
      <point x="88" y="44" type="line"/>
      <point x="93" y="-103" type="line"/>
      <point x="74" y="-200" type="line"/>
    </contour>
  </outline>
</glyph>
